<?xml version="1.0" encoding="utf-8" standalone="no"?>
<!DOCTYPE svg PUBLIC "-//W3C//DTD SVG 1.1//EN"
  "http://www.w3.org/Graphics/SVG/1.1/DTD/svg11.dtd">
<svg xmlns:xlink="http://www.w3.org/1999/xlink" width="852.474062pt" height="636.201094pt" viewBox="0 0 852.474062 636.201094" xmlns="http://www.w3.org/2000/svg" version="1.1">
 <metadata>
  <rdf:RDF xmlns:dc="http://purl.org/dc/elements/1.1/" xmlns:cc="http://creativecommons.org/ns#" xmlns:rdf="http://www.w3.org/1999/02/22-rdf-syntax-ns#">
   <cc:Work>
    <dc:type rdf:resource="http://purl.org/dc/dcmitype/StillImage"/>
    <dc:date>2023-06-09T10:25:45.262353</dc:date>
    <dc:format>image/svg+xml</dc:format>
    <dc:creator>
     <cc:Agent>
      <dc:title>Matplotlib v3.7.1, https://matplotlib.org/</dc:title>
     </cc:Agent>
    </dc:creator>
   </cc:Work>
  </rdf:RDF>
 </metadata>
 <defs>
  <style type="text/css">*{stroke-linejoin: round; stroke-linecap: butt}</style>
 </defs>
 <g id="figure_1">
  <g id="patch_1">
   <path d="M 0 636.201094 
L 852.474062 636.201094 
L 852.474062 0 
L 0 0 
z
" style="fill: #ffffff"/>
  </g>
  <g id="axes_1">
   <g id="patch_2">
    <path d="M 44.195313 594.18 
L 845.274062 594.18 
L 845.274062 33.181875 
L 44.195313 33.181875 
z
" style="fill: #eaeaf2"/>
   </g>
   <g id="matplotlib.axis_1">
    <g id="xtick_1">
     <g id="line2d_1">
      <path d="M 44.195313 594.18 
L 44.195313 33.181875 
" clip-path="url(#pd45098b243)" style="fill: none; stroke: #ffffff; stroke-linecap: round"/>
     </g>
     <g id="text_1">
      <!-- 0 -->
      <g style="fill: #262626" transform="translate(41.136797 611.553594) scale(0.11 -0.11)">
       <defs>
        <path id="ArialMT-30" d="M 266 2259 
Q 266 3072 433 3567 
Q 600 4063 929 4331 
Q 1259 4600 1759 4600 
Q 2128 4600 2406 4451 
Q 2684 4303 2865 4023 
Q 3047 3744 3150 3342 
Q 3253 2941 3253 2259 
Q 3253 1453 3087 958 
Q 2922 463 2592 192 
Q 2263 -78 1759 -78 
Q 1097 -78 719 397 
Q 266 969 266 2259 
z
M 844 2259 
Q 844 1131 1108 757 
Q 1372 384 1759 384 
Q 2147 384 2411 759 
Q 2675 1134 2675 2259 
Q 2675 3391 2411 3762 
Q 2147 4134 1753 4134 
Q 1366 4134 1134 3806 
Q 844 3388 844 2259 
z
" transform="scale(0.015625)"/>
       </defs>
       <use xlink:href="#ArialMT-30"/>
      </g>
     </g>
    </g>
    <g id="xtick_2">
     <g id="line2d_2">
      <path d="M 151.005812 594.18 
L 151.005812 33.181875 
" clip-path="url(#pd45098b243)" style="fill: none; stroke: #ffffff; stroke-linecap: round"/>
     </g>
     <g id="text_2">
      <!-- 1000 -->
      <g style="fill: #262626" transform="translate(138.77175 611.553594) scale(0.11 -0.11)">
       <defs>
        <path id="ArialMT-31" d="M 2384 0 
L 1822 0 
L 1822 3584 
Q 1619 3391 1289 3197 
Q 959 3003 697 2906 
L 697 3450 
Q 1169 3672 1522 3987 
Q 1875 4303 2022 4600 
L 2384 4600 
L 2384 0 
z
" transform="scale(0.015625)"/>
       </defs>
       <use xlink:href="#ArialMT-31"/>
       <use xlink:href="#ArialMT-30" x="55.615234"/>
       <use xlink:href="#ArialMT-30" x="111.230469"/>
       <use xlink:href="#ArialMT-30" x="166.845703"/>
      </g>
     </g>
    </g>
    <g id="xtick_3">
     <g id="line2d_3">
      <path d="M 257.816312 594.18 
L 257.816312 33.181875 
" clip-path="url(#pd45098b243)" style="fill: none; stroke: #ffffff; stroke-linecap: round"/>
     </g>
     <g id="text_3">
      <!-- 2000 -->
      <g style="fill: #262626" transform="translate(245.58225 611.553594) scale(0.11 -0.11)">
       <defs>
        <path id="ArialMT-32" d="M 3222 541 
L 3222 0 
L 194 0 
Q 188 203 259 391 
Q 375 700 629 1000 
Q 884 1300 1366 1694 
Q 2113 2306 2375 2664 
Q 2638 3022 2638 3341 
Q 2638 3675 2398 3904 
Q 2159 4134 1775 4134 
Q 1369 4134 1125 3890 
Q 881 3647 878 3216 
L 300 3275 
Q 359 3922 746 4261 
Q 1134 4600 1788 4600 
Q 2447 4600 2831 4234 
Q 3216 3869 3216 3328 
Q 3216 3053 3103 2787 
Q 2991 2522 2730 2228 
Q 2469 1934 1863 1422 
Q 1356 997 1212 845 
Q 1069 694 975 541 
L 3222 541 
z
" transform="scale(0.015625)"/>
       </defs>
       <use xlink:href="#ArialMT-32"/>
       <use xlink:href="#ArialMT-30" x="55.615234"/>
       <use xlink:href="#ArialMT-30" x="111.230469"/>
       <use xlink:href="#ArialMT-30" x="166.845703"/>
      </g>
     </g>
    </g>
    <g id="xtick_4">
     <g id="line2d_4">
      <path d="M 364.626812 594.18 
L 364.626812 33.181875 
" clip-path="url(#pd45098b243)" style="fill: none; stroke: #ffffff; stroke-linecap: round"/>
     </g>
     <g id="text_4">
      <!-- 3000 -->
      <g style="fill: #262626" transform="translate(352.39275 611.553594) scale(0.11 -0.11)">
       <defs>
        <path id="ArialMT-33" d="M 269 1209 
L 831 1284 
Q 928 806 1161 595 
Q 1394 384 1728 384 
Q 2125 384 2398 659 
Q 2672 934 2672 1341 
Q 2672 1728 2419 1979 
Q 2166 2231 1775 2231 
Q 1616 2231 1378 2169 
L 1441 2663 
Q 1497 2656 1531 2656 
Q 1891 2656 2178 2843 
Q 2466 3031 2466 3422 
Q 2466 3731 2256 3934 
Q 2047 4138 1716 4138 
Q 1388 4138 1169 3931 
Q 950 3725 888 3313 
L 325 3413 
Q 428 3978 793 4289 
Q 1159 4600 1703 4600 
Q 2078 4600 2393 4439 
Q 2709 4278 2876 4000 
Q 3044 3722 3044 3409 
Q 3044 3113 2884 2869 
Q 2725 2625 2413 2481 
Q 2819 2388 3044 2092 
Q 3269 1797 3269 1353 
Q 3269 753 2831 336 
Q 2394 -81 1725 -81 
Q 1122 -81 723 278 
Q 325 638 269 1209 
z
" transform="scale(0.015625)"/>
       </defs>
       <use xlink:href="#ArialMT-33"/>
       <use xlink:href="#ArialMT-30" x="55.615234"/>
       <use xlink:href="#ArialMT-30" x="111.230469"/>
       <use xlink:href="#ArialMT-30" x="166.845703"/>
      </g>
     </g>
    </g>
    <g id="xtick_5">
     <g id="line2d_5">
      <path d="M 471.437312 594.18 
L 471.437312 33.181875 
" clip-path="url(#pd45098b243)" style="fill: none; stroke: #ffffff; stroke-linecap: round"/>
     </g>
     <g id="text_5">
      <!-- 4000 -->
      <g style="fill: #262626" transform="translate(459.20325 611.553594) scale(0.11 -0.11)">
       <defs>
        <path id="ArialMT-34" d="M 2069 0 
L 2069 1097 
L 81 1097 
L 81 1613 
L 2172 4581 
L 2631 4581 
L 2631 1613 
L 3250 1613 
L 3250 1097 
L 2631 1097 
L 2631 0 
L 2069 0 
z
M 2069 1613 
L 2069 3678 
L 634 1613 
L 2069 1613 
z
" transform="scale(0.015625)"/>
       </defs>
       <use xlink:href="#ArialMT-34"/>
       <use xlink:href="#ArialMT-30" x="55.615234"/>
       <use xlink:href="#ArialMT-30" x="111.230469"/>
       <use xlink:href="#ArialMT-30" x="166.845703"/>
      </g>
     </g>
    </g>
    <g id="xtick_6">
     <g id="line2d_6">
      <path d="M 578.247812 594.18 
L 578.247812 33.181875 
" clip-path="url(#pd45098b243)" style="fill: none; stroke: #ffffff; stroke-linecap: round"/>
     </g>
     <g id="text_6">
      <!-- 5000 -->
      <g style="fill: #262626" transform="translate(566.01375 611.553594) scale(0.11 -0.11)">
       <defs>
        <path id="ArialMT-35" d="M 266 1200 
L 856 1250 
Q 922 819 1161 601 
Q 1400 384 1738 384 
Q 2144 384 2425 690 
Q 2706 997 2706 1503 
Q 2706 1984 2436 2262 
Q 2166 2541 1728 2541 
Q 1456 2541 1237 2417 
Q 1019 2294 894 2097 
L 366 2166 
L 809 4519 
L 3088 4519 
L 3088 3981 
L 1259 3981 
L 1013 2750 
Q 1425 3038 1878 3038 
Q 2478 3038 2890 2622 
Q 3303 2206 3303 1553 
Q 3303 931 2941 478 
Q 2500 -78 1738 -78 
Q 1113 -78 717 272 
Q 322 622 266 1200 
z
" transform="scale(0.015625)"/>
       </defs>
       <use xlink:href="#ArialMT-35"/>
       <use xlink:href="#ArialMT-30" x="55.615234"/>
       <use xlink:href="#ArialMT-30" x="111.230469"/>
       <use xlink:href="#ArialMT-30" x="166.845703"/>
      </g>
     </g>
    </g>
    <g id="xtick_7">
     <g id="line2d_7">
      <path d="M 685.058312 594.18 
L 685.058312 33.181875 
" clip-path="url(#pd45098b243)" style="fill: none; stroke: #ffffff; stroke-linecap: round"/>
     </g>
     <g id="text_7">
      <!-- 6000 -->
      <g style="fill: #262626" transform="translate(672.82425 611.553594) scale(0.11 -0.11)">
       <defs>
        <path id="ArialMT-36" d="M 3184 3459 
L 2625 3416 
Q 2550 3747 2413 3897 
Q 2184 4138 1850 4138 
Q 1581 4138 1378 3988 
Q 1113 3794 959 3422 
Q 806 3050 800 2363 
Q 1003 2672 1297 2822 
Q 1591 2972 1913 2972 
Q 2475 2972 2870 2558 
Q 3266 2144 3266 1488 
Q 3266 1056 3080 686 
Q 2894 316 2569 119 
Q 2244 -78 1831 -78 
Q 1128 -78 684 439 
Q 241 956 241 2144 
Q 241 3472 731 4075 
Q 1159 4600 1884 4600 
Q 2425 4600 2770 4297 
Q 3116 3994 3184 3459 
z
M 888 1484 
Q 888 1194 1011 928 
Q 1134 663 1356 523 
Q 1578 384 1822 384 
Q 2178 384 2434 671 
Q 2691 959 2691 1453 
Q 2691 1928 2437 2201 
Q 2184 2475 1800 2475 
Q 1419 2475 1153 2201 
Q 888 1928 888 1484 
z
" transform="scale(0.015625)"/>
       </defs>
       <use xlink:href="#ArialMT-36"/>
       <use xlink:href="#ArialMT-30" x="55.615234"/>
       <use xlink:href="#ArialMT-30" x="111.230469"/>
       <use xlink:href="#ArialMT-30" x="166.845703"/>
      </g>
     </g>
    </g>
    <g id="xtick_8">
     <g id="line2d_8">
      <path d="M 791.868812 594.18 
L 791.868812 33.181875 
" clip-path="url(#pd45098b243)" style="fill: none; stroke: #ffffff; stroke-linecap: round"/>
     </g>
     <g id="text_8">
      <!-- 7000 -->
      <g style="fill: #262626" transform="translate(779.63475 611.553594) scale(0.11 -0.11)">
       <defs>
        <path id="ArialMT-37" d="M 303 3981 
L 303 4522 
L 3269 4522 
L 3269 4084 
Q 2831 3619 2401 2847 
Q 1972 2075 1738 1259 
Q 1569 684 1522 0 
L 944 0 
Q 953 541 1156 1306 
Q 1359 2072 1739 2783 
Q 2119 3494 2547 3981 
L 303 3981 
z
" transform="scale(0.015625)"/>
       </defs>
       <use xlink:href="#ArialMT-37"/>
       <use xlink:href="#ArialMT-30" x="55.615234"/>
       <use xlink:href="#ArialMT-30" x="111.230469"/>
       <use xlink:href="#ArialMT-30" x="166.845703"/>
      </g>
     </g>
    </g>
    <g id="text_9">
     <!-- Playarea of playground [m²] -->
     <g style="fill: #262626" transform="translate(371.035 626.475469) scale(0.12 -0.12)">
      <defs>
       <path id="ArialMT-50" d="M 494 0 
L 494 4581 
L 2222 4581 
Q 2678 4581 2919 4538 
Q 3256 4481 3484 4323 
Q 3713 4166 3852 3881 
Q 3991 3597 3991 3256 
Q 3991 2672 3619 2267 
Q 3247 1863 2275 1863 
L 1100 1863 
L 1100 0 
L 494 0 
z
M 1100 2403 
L 2284 2403 
Q 2872 2403 3119 2622 
Q 3366 2841 3366 3238 
Q 3366 3525 3220 3729 
Q 3075 3934 2838 4000 
Q 2684 4041 2272 4041 
L 1100 4041 
L 1100 2403 
z
" transform="scale(0.015625)"/>
       <path id="ArialMT-6c" d="M 409 0 
L 409 4581 
L 972 4581 
L 972 0 
L 409 0 
z
" transform="scale(0.015625)"/>
       <path id="ArialMT-61" d="M 2588 409 
Q 2275 144 1986 34 
Q 1697 -75 1366 -75 
Q 819 -75 525 192 
Q 231 459 231 875 
Q 231 1119 342 1320 
Q 453 1522 633 1644 
Q 813 1766 1038 1828 
Q 1203 1872 1538 1913 
Q 2219 1994 2541 2106 
Q 2544 2222 2544 2253 
Q 2544 2597 2384 2738 
Q 2169 2928 1744 2928 
Q 1347 2928 1158 2789 
Q 969 2650 878 2297 
L 328 2372 
Q 403 2725 575 2942 
Q 747 3159 1072 3276 
Q 1397 3394 1825 3394 
Q 2250 3394 2515 3294 
Q 2781 3194 2906 3042 
Q 3031 2891 3081 2659 
Q 3109 2516 3109 2141 
L 3109 1391 
Q 3109 606 3145 398 
Q 3181 191 3288 0 
L 2700 0 
Q 2613 175 2588 409 
z
M 2541 1666 
Q 2234 1541 1622 1453 
Q 1275 1403 1131 1340 
Q 988 1278 909 1158 
Q 831 1038 831 891 
Q 831 666 1001 516 
Q 1172 366 1500 366 
Q 1825 366 2078 508 
Q 2331 650 2450 897 
Q 2541 1088 2541 1459 
L 2541 1666 
z
" transform="scale(0.015625)"/>
       <path id="ArialMT-79" d="M 397 -1278 
L 334 -750 
Q 519 -800 656 -800 
Q 844 -800 956 -737 
Q 1069 -675 1141 -563 
Q 1194 -478 1313 -144 
Q 1328 -97 1363 -6 
L 103 3319 
L 709 3319 
L 1400 1397 
Q 1534 1031 1641 628 
Q 1738 1016 1872 1384 
L 2581 3319 
L 3144 3319 
L 1881 -56 
Q 1678 -603 1566 -809 
Q 1416 -1088 1222 -1217 
Q 1028 -1347 759 -1347 
Q 597 -1347 397 -1278 
z
" transform="scale(0.015625)"/>
       <path id="ArialMT-72" d="M 416 0 
L 416 3319 
L 922 3319 
L 922 2816 
Q 1116 3169 1280 3281 
Q 1444 3394 1641 3394 
Q 1925 3394 2219 3213 
L 2025 2691 
Q 1819 2813 1613 2813 
Q 1428 2813 1281 2702 
Q 1134 2591 1072 2394 
Q 978 2094 978 1738 
L 978 0 
L 416 0 
z
" transform="scale(0.015625)"/>
       <path id="ArialMT-65" d="M 2694 1069 
L 3275 997 
Q 3138 488 2766 206 
Q 2394 -75 1816 -75 
Q 1088 -75 661 373 
Q 234 822 234 1631 
Q 234 2469 665 2931 
Q 1097 3394 1784 3394 
Q 2450 3394 2872 2941 
Q 3294 2488 3294 1666 
Q 3294 1616 3291 1516 
L 816 1516 
Q 847 969 1125 678 
Q 1403 388 1819 388 
Q 2128 388 2347 550 
Q 2566 713 2694 1069 
z
M 847 1978 
L 2700 1978 
Q 2663 2397 2488 2606 
Q 2219 2931 1791 2931 
Q 1403 2931 1139 2672 
Q 875 2413 847 1978 
z
" transform="scale(0.015625)"/>
       <path id="ArialMT-20" transform="scale(0.015625)"/>
       <path id="ArialMT-6f" d="M 213 1659 
Q 213 2581 725 3025 
Q 1153 3394 1769 3394 
Q 2453 3394 2887 2945 
Q 3322 2497 3322 1706 
Q 3322 1066 3130 698 
Q 2938 331 2570 128 
Q 2203 -75 1769 -75 
Q 1072 -75 642 372 
Q 213 819 213 1659 
z
M 791 1659 
Q 791 1022 1069 705 
Q 1347 388 1769 388 
Q 2188 388 2466 706 
Q 2744 1025 2744 1678 
Q 2744 2294 2464 2611 
Q 2184 2928 1769 2928 
Q 1347 2928 1069 2612 
Q 791 2297 791 1659 
z
" transform="scale(0.015625)"/>
       <path id="ArialMT-66" d="M 556 0 
L 556 2881 
L 59 2881 
L 59 3319 
L 556 3319 
L 556 3672 
Q 556 4006 616 4169 
Q 697 4388 901 4523 
Q 1106 4659 1475 4659 
Q 1713 4659 2000 4603 
L 1916 4113 
Q 1741 4144 1584 4144 
Q 1328 4144 1222 4034 
Q 1116 3925 1116 3625 
L 1116 3319 
L 1763 3319 
L 1763 2881 
L 1116 2881 
L 1116 0 
L 556 0 
z
" transform="scale(0.015625)"/>
       <path id="ArialMT-70" d="M 422 -1272 
L 422 3319 
L 934 3319 
L 934 2888 
Q 1116 3141 1344 3267 
Q 1572 3394 1897 3394 
Q 2322 3394 2647 3175 
Q 2972 2956 3137 2557 
Q 3303 2159 3303 1684 
Q 3303 1175 3120 767 
Q 2938 359 2589 142 
Q 2241 -75 1856 -75 
Q 1575 -75 1351 44 
Q 1128 163 984 344 
L 984 -1272 
L 422 -1272 
z
M 931 1641 
Q 931 1000 1190 694 
Q 1450 388 1819 388 
Q 2194 388 2461 705 
Q 2728 1022 2728 1688 
Q 2728 2322 2467 2637 
Q 2206 2953 1844 2953 
Q 1484 2953 1207 2617 
Q 931 2281 931 1641 
z
" transform="scale(0.015625)"/>
       <path id="ArialMT-67" d="M 319 -275 
L 866 -356 
Q 900 -609 1056 -725 
Q 1266 -881 1628 -881 
Q 2019 -881 2231 -725 
Q 2444 -569 2519 -288 
Q 2563 -116 2559 434 
Q 2191 0 1641 0 
Q 956 0 581 494 
Q 206 988 206 1678 
Q 206 2153 378 2554 
Q 550 2956 876 3175 
Q 1203 3394 1644 3394 
Q 2231 3394 2613 2919 
L 2613 3319 
L 3131 3319 
L 3131 450 
Q 3131 -325 2973 -648 
Q 2816 -972 2473 -1159 
Q 2131 -1347 1631 -1347 
Q 1038 -1347 672 -1080 
Q 306 -813 319 -275 
z
M 784 1719 
Q 784 1066 1043 766 
Q 1303 466 1694 466 
Q 2081 466 2343 764 
Q 2606 1063 2606 1700 
Q 2606 2309 2336 2618 
Q 2066 2928 1684 2928 
Q 1309 2928 1046 2623 
Q 784 2319 784 1719 
z
" transform="scale(0.015625)"/>
       <path id="ArialMT-75" d="M 2597 0 
L 2597 488 
Q 2209 -75 1544 -75 
Q 1250 -75 995 37 
Q 741 150 617 320 
Q 494 491 444 738 
Q 409 903 409 1263 
L 409 3319 
L 972 3319 
L 972 1478 
Q 972 1038 1006 884 
Q 1059 663 1231 536 
Q 1403 409 1656 409 
Q 1909 409 2131 539 
Q 2353 669 2445 892 
Q 2538 1116 2538 1541 
L 2538 3319 
L 3100 3319 
L 3100 0 
L 2597 0 
z
" transform="scale(0.015625)"/>
       <path id="ArialMT-6e" d="M 422 0 
L 422 3319 
L 928 3319 
L 928 2847 
Q 1294 3394 1984 3394 
Q 2284 3394 2536 3286 
Q 2788 3178 2913 3003 
Q 3038 2828 3088 2588 
Q 3119 2431 3119 2041 
L 3119 0 
L 2556 0 
L 2556 2019 
Q 2556 2363 2490 2533 
Q 2425 2703 2258 2804 
Q 2091 2906 1866 2906 
Q 1506 2906 1245 2678 
Q 984 2450 984 1813 
L 984 0 
L 422 0 
z
" transform="scale(0.015625)"/>
       <path id="ArialMT-64" d="M 2575 0 
L 2575 419 
Q 2259 -75 1647 -75 
Q 1250 -75 917 144 
Q 584 363 401 755 
Q 219 1147 219 1656 
Q 219 2153 384 2558 
Q 550 2963 881 3178 
Q 1213 3394 1622 3394 
Q 1922 3394 2156 3267 
Q 2391 3141 2538 2938 
L 2538 4581 
L 3097 4581 
L 3097 0 
L 2575 0 
z
M 797 1656 
Q 797 1019 1065 703 
Q 1334 388 1700 388 
Q 2069 388 2326 689 
Q 2584 991 2584 1609 
Q 2584 2291 2321 2609 
Q 2059 2928 1675 2928 
Q 1300 2928 1048 2622 
Q 797 2316 797 1656 
z
" transform="scale(0.015625)"/>
       <path id="ArialMT-5b" d="M 434 -1272 
L 434 4581 
L 1675 4581 
L 1675 4116 
L 997 4116 
L 997 -806 
L 1675 -806 
L 1675 -1272 
L 434 -1272 
z
" transform="scale(0.015625)"/>
       <path id="ArialMT-6d" d="M 422 0 
L 422 3319 
L 925 3319 
L 925 2853 
Q 1081 3097 1340 3245 
Q 1600 3394 1931 3394 
Q 2300 3394 2536 3241 
Q 2772 3088 2869 2813 
Q 3263 3394 3894 3394 
Q 4388 3394 4653 3120 
Q 4919 2847 4919 2278 
L 4919 0 
L 4359 0 
L 4359 2091 
Q 4359 2428 4304 2576 
Q 4250 2725 4106 2815 
Q 3963 2906 3769 2906 
Q 3419 2906 3187 2673 
Q 2956 2441 2956 1928 
L 2956 0 
L 2394 0 
L 2394 2156 
Q 2394 2531 2256 2718 
Q 2119 2906 1806 2906 
Q 1569 2906 1367 2781 
Q 1166 2656 1075 2415 
Q 984 2175 984 1722 
L 984 0 
L 422 0 
z
" transform="scale(0.015625)"/>
       <path id="ArialMT-b2" d="M 78 2291 
Q 97 2469 225 2647 
Q 422 2916 872 3242 
Q 1322 3569 1406 3663 
Q 1522 3791 1522 3925 
Q 1522 4075 1412 4172 
Q 1303 4269 1091 4269 
Q 884 4269 782 4195 
Q 681 4122 616 3913 
L 144 3963 
Q 234 4309 457 4473 
Q 681 4638 1100 4638 
Q 1572 4638 1792 4453 
Q 2013 4269 2013 4003 
Q 2013 3741 1828 3506 
Q 1688 3331 1188 2972 
Q 928 2781 819 2669 
L 2025 2669 
L 2025 2291 
L 78 2291 
z
" transform="scale(0.015625)"/>
       <path id="ArialMT-5d" d="M 1363 -1272 
L 122 -1272 
L 122 -806 
L 800 -806 
L 800 4116 
L 122 4116 
L 122 4581 
L 1363 4581 
L 1363 -1272 
z
" transform="scale(0.015625)"/>
      </defs>
      <use xlink:href="#ArialMT-50"/>
      <use xlink:href="#ArialMT-6c" x="66.699219"/>
      <use xlink:href="#ArialMT-61" x="88.916016"/>
      <use xlink:href="#ArialMT-79" x="144.53125"/>
      <use xlink:href="#ArialMT-61" x="194.53125"/>
      <use xlink:href="#ArialMT-72" x="250.146484"/>
      <use xlink:href="#ArialMT-65" x="283.447266"/>
      <use xlink:href="#ArialMT-61" x="339.0625"/>
      <use xlink:href="#ArialMT-20" x="394.677734"/>
      <use xlink:href="#ArialMT-6f" x="422.460938"/>
      <use xlink:href="#ArialMT-66" x="478.076172"/>
      <use xlink:href="#ArialMT-20" x="505.859375"/>
      <use xlink:href="#ArialMT-70" x="533.642578"/>
      <use xlink:href="#ArialMT-6c" x="589.257812"/>
      <use xlink:href="#ArialMT-61" x="611.474609"/>
      <use xlink:href="#ArialMT-79" x="667.089844"/>
      <use xlink:href="#ArialMT-67" x="717.089844"/>
      <use xlink:href="#ArialMT-72" x="772.705078"/>
      <use xlink:href="#ArialMT-6f" x="806.005859"/>
      <use xlink:href="#ArialMT-75" x="861.621094"/>
      <use xlink:href="#ArialMT-6e" x="917.236328"/>
      <use xlink:href="#ArialMT-64" x="972.851562"/>
      <use xlink:href="#ArialMT-20" x="1028.466797"/>
      <use xlink:href="#ArialMT-5b" x="1056.25"/>
      <use xlink:href="#ArialMT-6d" x="1084.033203"/>
      <use xlink:href="#ArialMT-b2" x="1167.333984"/>
      <use xlink:href="#ArialMT-5d" x="1200.634766"/>
     </g>
    </g>
   </g>
   <g id="matplotlib.axis_2">
    <g id="ytick_1">
     <g id="line2d_9">
      <path d="M 44.195313 594.18 
L 845.274062 594.18 
" clip-path="url(#pd45098b243)" style="fill: none; stroke: #ffffff; stroke-linecap: round"/>
     </g>
     <g id="text_10">
      <!-- 0 -->
      <g style="fill: #262626" transform="translate(28.578281 598.116797) scale(0.11 -0.11)">
       <use xlink:href="#ArialMT-30"/>
      </g>
     </g>
    </g>
    <g id="ytick_2">
     <g id="line2d_10">
      <path d="M 44.195313 513.498637 
L 845.274062 513.498637 
" clip-path="url(#pd45098b243)" style="fill: none; stroke: #ffffff; stroke-linecap: round"/>
     </g>
     <g id="text_11">
      <!-- 2 -->
      <g style="fill: #262626" transform="translate(28.578281 517.435434) scale(0.11 -0.11)">
       <use xlink:href="#ArialMT-32"/>
      </g>
     </g>
    </g>
    <g id="ytick_3">
     <g id="line2d_11">
      <path d="M 44.195313 432.817274 
L 845.274062 432.817274 
" clip-path="url(#pd45098b243)" style="fill: none; stroke: #ffffff; stroke-linecap: round"/>
     </g>
     <g id="text_12">
      <!-- 4 -->
      <g style="fill: #262626" transform="translate(28.578281 436.754071) scale(0.11 -0.11)">
       <use xlink:href="#ArialMT-34"/>
      </g>
     </g>
    </g>
    <g id="ytick_4">
     <g id="line2d_12">
      <path d="M 44.195313 352.135911 
L 845.274062 352.135911 
" clip-path="url(#pd45098b243)" style="fill: none; stroke: #ffffff; stroke-linecap: round"/>
     </g>
     <g id="text_13">
      <!-- 6 -->
      <g style="fill: #262626" transform="translate(28.578281 356.072708) scale(0.11 -0.11)">
       <use xlink:href="#ArialMT-36"/>
      </g>
     </g>
    </g>
    <g id="ytick_5">
     <g id="line2d_13">
      <path d="M 44.195313 271.454548 
L 845.274062 271.454548 
" clip-path="url(#pd45098b243)" style="fill: none; stroke: #ffffff; stroke-linecap: round"/>
     </g>
     <g id="text_14">
      <!-- 8 -->
      <g style="fill: #262626" transform="translate(28.578281 275.391345) scale(0.11 -0.11)">
       <defs>
        <path id="ArialMT-38" d="M 1131 2484 
Q 781 2613 612 2850 
Q 444 3088 444 3419 
Q 444 3919 803 4259 
Q 1163 4600 1759 4600 
Q 2359 4600 2725 4251 
Q 3091 3903 3091 3403 
Q 3091 3084 2923 2848 
Q 2756 2613 2416 2484 
Q 2838 2347 3058 2040 
Q 3278 1734 3278 1309 
Q 3278 722 2862 322 
Q 2447 -78 1769 -78 
Q 1091 -78 675 323 
Q 259 725 259 1325 
Q 259 1772 486 2073 
Q 713 2375 1131 2484 
z
M 1019 3438 
Q 1019 3113 1228 2906 
Q 1438 2700 1772 2700 
Q 2097 2700 2305 2904 
Q 2513 3109 2513 3406 
Q 2513 3716 2298 3927 
Q 2084 4138 1766 4138 
Q 1444 4138 1231 3931 
Q 1019 3725 1019 3438 
z
M 838 1322 
Q 838 1081 952 856 
Q 1066 631 1291 507 
Q 1516 384 1775 384 
Q 2178 384 2440 643 
Q 2703 903 2703 1303 
Q 2703 1709 2433 1975 
Q 2163 2241 1756 2241 
Q 1359 2241 1098 1978 
Q 838 1716 838 1322 
z
" transform="scale(0.015625)"/>
       </defs>
       <use xlink:href="#ArialMT-38"/>
      </g>
     </g>
    </g>
    <g id="ytick_6">
     <g id="line2d_14">
      <path d="M 44.195313 190.773185 
L 845.274062 190.773185 
" clip-path="url(#pd45098b243)" style="fill: none; stroke: #ffffff; stroke-linecap: round"/>
     </g>
     <g id="text_15">
      <!-- 10 -->
      <g style="fill: #262626" transform="translate(22.46125 194.709982) scale(0.11 -0.11)">
       <use xlink:href="#ArialMT-31"/>
       <use xlink:href="#ArialMT-30" x="55.615234"/>
      </g>
     </g>
    </g>
    <g id="ytick_7">
     <g id="line2d_15">
      <path d="M 44.195313 110.091822 
L 845.274062 110.091822 
" clip-path="url(#pd45098b243)" style="fill: none; stroke: #ffffff; stroke-linecap: round"/>
     </g>
     <g id="text_16">
      <!-- 12 -->
      <g style="fill: #262626" transform="translate(22.46125 114.028619) scale(0.11 -0.11)">
       <use xlink:href="#ArialMT-31"/>
       <use xlink:href="#ArialMT-32" x="55.615234"/>
      </g>
     </g>
    </g>
    <g id="text_17">
     <!-- Fraction of playgrounds [%] -->
     <g style="fill: #262626" transform="translate(15.935625 386.713125) rotate(-90) scale(0.12 -0.12)">
      <defs>
       <path id="ArialMT-46" d="M 525 0 
L 525 4581 
L 3616 4581 
L 3616 4041 
L 1131 4041 
L 1131 2622 
L 3281 2622 
L 3281 2081 
L 1131 2081 
L 1131 0 
L 525 0 
z
" transform="scale(0.015625)"/>
       <path id="ArialMT-63" d="M 2588 1216 
L 3141 1144 
Q 3050 572 2676 248 
Q 2303 -75 1759 -75 
Q 1078 -75 664 370 
Q 250 816 250 1647 
Q 250 2184 428 2587 
Q 606 2991 970 3192 
Q 1334 3394 1763 3394 
Q 2303 3394 2647 3120 
Q 2991 2847 3088 2344 
L 2541 2259 
Q 2463 2594 2264 2762 
Q 2066 2931 1784 2931 
Q 1359 2931 1093 2626 
Q 828 2322 828 1663 
Q 828 994 1084 691 
Q 1341 388 1753 388 
Q 2084 388 2306 591 
Q 2528 794 2588 1216 
z
" transform="scale(0.015625)"/>
       <path id="ArialMT-74" d="M 1650 503 
L 1731 6 
Q 1494 -44 1306 -44 
Q 1000 -44 831 53 
Q 663 150 594 308 
Q 525 466 525 972 
L 525 2881 
L 113 2881 
L 113 3319 
L 525 3319 
L 525 4141 
L 1084 4478 
L 1084 3319 
L 1650 3319 
L 1650 2881 
L 1084 2881 
L 1084 941 
Q 1084 700 1114 631 
Q 1144 563 1211 522 
Q 1278 481 1403 481 
Q 1497 481 1650 503 
z
" transform="scale(0.015625)"/>
       <path id="ArialMT-69" d="M 425 3934 
L 425 4581 
L 988 4581 
L 988 3934 
L 425 3934 
z
M 425 0 
L 425 3319 
L 988 3319 
L 988 0 
L 425 0 
z
" transform="scale(0.015625)"/>
       <path id="ArialMT-73" d="M 197 991 
L 753 1078 
Q 800 744 1014 566 
Q 1228 388 1613 388 
Q 2000 388 2187 545 
Q 2375 703 2375 916 
Q 2375 1106 2209 1216 
Q 2094 1291 1634 1406 
Q 1016 1563 777 1677 
Q 538 1791 414 1992 
Q 291 2194 291 2438 
Q 291 2659 392 2848 
Q 494 3038 669 3163 
Q 800 3259 1026 3326 
Q 1253 3394 1513 3394 
Q 1903 3394 2198 3281 
Q 2494 3169 2634 2976 
Q 2775 2784 2828 2463 
L 2278 2388 
Q 2241 2644 2061 2787 
Q 1881 2931 1553 2931 
Q 1166 2931 1000 2803 
Q 834 2675 834 2503 
Q 834 2394 903 2306 
Q 972 2216 1119 2156 
Q 1203 2125 1616 2013 
Q 2213 1853 2448 1751 
Q 2684 1650 2818 1456 
Q 2953 1263 2953 975 
Q 2953 694 2789 445 
Q 2625 197 2315 61 
Q 2006 -75 1616 -75 
Q 969 -75 630 194 
Q 291 463 197 991 
z
" transform="scale(0.015625)"/>
       <path id="ArialMT-25" d="M 372 3481 
Q 372 3972 619 4315 
Q 866 4659 1334 4659 
Q 1766 4659 2048 4351 
Q 2331 4044 2331 3447 
Q 2331 2866 2045 2552 
Q 1759 2238 1341 2238 
Q 925 2238 648 2547 
Q 372 2856 372 3481 
z
M 1350 4272 
Q 1141 4272 1002 4090 
Q 863 3909 863 3425 
Q 863 2984 1003 2804 
Q 1144 2625 1350 2625 
Q 1563 2625 1702 2806 
Q 1841 2988 1841 3469 
Q 1841 3913 1700 4092 
Q 1559 4272 1350 4272 
z
M 1353 -169 
L 3859 4659 
L 4316 4659 
L 1819 -169 
L 1353 -169 
z
M 3334 1075 
Q 3334 1569 3581 1911 
Q 3828 2253 4300 2253 
Q 4731 2253 5014 1945 
Q 5297 1638 5297 1041 
Q 5297 459 5011 145 
Q 4725 -169 4303 -169 
Q 3888 -169 3611 142 
Q 3334 453 3334 1075 
z
M 4316 1866 
Q 4103 1866 3964 1684 
Q 3825 1503 3825 1019 
Q 3825 581 3965 400 
Q 4106 219 4313 219 
Q 4528 219 4667 400 
Q 4806 581 4806 1063 
Q 4806 1506 4665 1686 
Q 4525 1866 4316 1866 
z
" transform="scale(0.015625)"/>
      </defs>
      <use xlink:href="#ArialMT-46"/>
      <use xlink:href="#ArialMT-72" x="61.083984"/>
      <use xlink:href="#ArialMT-61" x="94.384766"/>
      <use xlink:href="#ArialMT-63" x="150"/>
      <use xlink:href="#ArialMT-74" x="200"/>
      <use xlink:href="#ArialMT-69" x="227.783203"/>
      <use xlink:href="#ArialMT-6f" x="250"/>
      <use xlink:href="#ArialMT-6e" x="305.615234"/>
      <use xlink:href="#ArialMT-20" x="361.230469"/>
      <use xlink:href="#ArialMT-6f" x="389.013672"/>
      <use xlink:href="#ArialMT-66" x="444.628906"/>
      <use xlink:href="#ArialMT-20" x="472.412109"/>
      <use xlink:href="#ArialMT-70" x="500.195312"/>
      <use xlink:href="#ArialMT-6c" x="555.810547"/>
      <use xlink:href="#ArialMT-61" x="578.027344"/>
      <use xlink:href="#ArialMT-79" x="633.642578"/>
      <use xlink:href="#ArialMT-67" x="683.642578"/>
      <use xlink:href="#ArialMT-72" x="739.257812"/>
      <use xlink:href="#ArialMT-6f" x="772.558594"/>
      <use xlink:href="#ArialMT-75" x="828.173828"/>
      <use xlink:href="#ArialMT-6e" x="883.789062"/>
      <use xlink:href="#ArialMT-64" x="939.404297"/>
      <use xlink:href="#ArialMT-73" x="995.019531"/>
      <use xlink:href="#ArialMT-20" x="1045.019531"/>
      <use xlink:href="#ArialMT-5b" x="1072.802734"/>
      <use xlink:href="#ArialMT-25" x="1100.585938"/>
      <use xlink:href="#ArialMT-5d" x="1189.501953"/>
     </g>
    </g>
   </g>
   <g id="patch_3">
    <path d="M 45.049797 594.18 
L 64.058717 594.18 
L 64.058717 362.956283 
L 45.049797 362.956283 
z
" clip-path="url(#pd45098b243)" style="fill: #4c72b0; fill-opacity: 0.75; stroke: #ffffff; stroke-width: 0.285634; stroke-linejoin: miter"/>
   </g>
   <g id="patch_4">
    <path d="M 64.058717 594.18 
L 83.067637 594.18 
L 83.067637 192.344608 
L 64.058717 192.344608 
z
" clip-path="url(#pd45098b243)" style="fill: #4c72b0; fill-opacity: 0.75; stroke: #ffffff; stroke-width: 0.285634; stroke-linejoin: miter"/>
   </g>
   <g id="patch_5">
    <path d="M 83.067637 594.18 
L 102.076557 594.18 
L 102.076557 120.508114 
L 83.067637 120.508114 
z
" clip-path="url(#pd45098b243)" style="fill: #4c72b0; fill-opacity: 0.75; stroke: #ffffff; stroke-width: 0.285634; stroke-linejoin: miter"/>
   </g>
   <g id="patch_6">
    <path d="M 102.076557 594.18 
L 121.085477 594.18 
L 121.085477 59.896071 
L 102.076557 59.896071 
z
" clip-path="url(#pd45098b243)" style="fill: #4c72b0; fill-opacity: 0.75; stroke: #ffffff; stroke-width: 0.285634; stroke-linejoin: miter"/>
   </g>
   <g id="patch_7">
    <path d="M 121.085477 594.18 
L 140.094397 594.18 
L 140.094397 187.854827 
L 121.085477 187.854827 
z
" clip-path="url(#pd45098b243)" style="fill: #4c72b0; fill-opacity: 0.75; stroke: #ffffff; stroke-width: 0.285634; stroke-linejoin: miter"/>
   </g>
   <g id="patch_8">
    <path d="M 140.094397 594.18 
L 159.103317 594.18 
L 159.103317 277.650446 
L 140.094397 277.650446 
z
" clip-path="url(#pd45098b243)" style="fill: #4c72b0; fill-opacity: 0.75; stroke: #ffffff; stroke-width: 0.285634; stroke-linejoin: miter"/>
   </g>
   <g id="patch_9">
    <path d="M 159.103317 594.18 
L 178.112237 594.18 
L 178.112237 342.752269 
L 159.103317 342.752269 
z
" clip-path="url(#pd45098b243)" style="fill: #4c72b0; fill-opacity: 0.75; stroke: #ffffff; stroke-width: 0.285634; stroke-linejoin: miter"/>
   </g>
   <g id="patch_10">
    <path d="M 178.112237 594.18 
L 197.121157 594.18 
L 197.121157 349.48694 
L 178.112237 349.48694 
z
" clip-path="url(#pd45098b243)" style="fill: #4c72b0; fill-opacity: 0.75; stroke: #ffffff; stroke-width: 0.285634; stroke-linejoin: miter"/>
   </g>
   <g id="patch_11">
    <path d="M 197.121157 594.18 
L 216.130077 594.18 
L 216.130077 423.568325 
L 197.121157 423.568325 
z
" clip-path="url(#pd45098b243)" style="fill: #4c72b0; fill-opacity: 0.75; stroke: #ffffff; stroke-width: 0.285634; stroke-linejoin: miter"/>
   </g>
   <g id="patch_12">
    <path d="M 216.130077 594.18 
L 235.138997 594.18 
L 235.138997 454.996792 
L 216.130077 454.996792 
z
" clip-path="url(#pd45098b243)" style="fill: #4c72b0; fill-opacity: 0.75; stroke: #ffffff; stroke-width: 0.285634; stroke-linejoin: miter"/>
   </g>
   <g id="patch_13">
    <path d="M 235.138997 594.18 
L 254.147917 594.18 
L 254.147917 457.241682 
L 235.138997 457.241682 
z
" clip-path="url(#pd45098b243)" style="fill: #4c72b0; fill-opacity: 0.75; stroke: #ffffff; stroke-width: 0.285634; stroke-linejoin: miter"/>
   </g>
   <g id="patch_14">
    <path d="M 254.147917 594.18 
L 273.156837 594.18 
L 273.156837 484.180368 
L 254.147917 484.180368 
z
" clip-path="url(#pd45098b243)" style="fill: #4c72b0; fill-opacity: 0.75; stroke: #ffffff; stroke-width: 0.285634; stroke-linejoin: miter"/>
   </g>
   <g id="patch_15">
    <path d="M 273.156837 594.18 
L 292.165757 594.18 
L 292.165757 511.119053 
L 273.156837 511.119053 
z
" clip-path="url(#pd45098b243)" style="fill: #4c72b0; fill-opacity: 0.75; stroke: #ffffff; stroke-width: 0.285634; stroke-linejoin: miter"/>
   </g>
   <g id="patch_16">
    <path d="M 292.165757 594.18 
L 311.174677 594.18 
L 311.174677 520.098615 
L 292.165757 520.098615 
z
" clip-path="url(#pd45098b243)" style="fill: #4c72b0; fill-opacity: 0.75; stroke: #ffffff; stroke-width: 0.285634; stroke-linejoin: miter"/>
   </g>
   <g id="patch_17">
    <path d="M 311.174677 594.18 
L 330.183597 594.18 
L 330.183597 533.567958 
L 311.174677 533.567958 
z
" clip-path="url(#pd45098b243)" style="fill: #4c72b0; fill-opacity: 0.75; stroke: #ffffff; stroke-width: 0.285634; stroke-linejoin: miter"/>
   </g>
   <g id="patch_18">
    <path d="M 330.183597 594.18 
L 349.192517 594.18 
L 349.192517 544.79241 
L 330.183597 544.79241 
z
" clip-path="url(#pd45098b243)" style="fill: #4c72b0; fill-opacity: 0.75; stroke: #ffffff; stroke-width: 0.285634; stroke-linejoin: miter"/>
   </g>
   <g id="patch_19">
    <path d="M 349.192517 594.18 
L 368.201437 594.18 
L 368.201437 531.323067 
L 349.192517 531.323067 
z
" clip-path="url(#pd45098b243)" style="fill: #4c72b0; fill-opacity: 0.75; stroke: #ffffff; stroke-width: 0.285634; stroke-linejoin: miter"/>
   </g>
   <g id="patch_20">
    <path d="M 368.201437 594.18 
L 387.210357 594.18 
L 387.210357 542.54752 
L 368.201437 542.54752 
z
" clip-path="url(#pd45098b243)" style="fill: #4c72b0; fill-opacity: 0.75; stroke: #ffffff; stroke-width: 0.285634; stroke-linejoin: miter"/>
   </g>
   <g id="patch_21">
    <path d="M 387.210357 594.18 
L 406.219277 594.18 
L 406.219277 567.241315 
L 387.210357 567.241315 
z
" clip-path="url(#pd45098b243)" style="fill: #4c72b0; fill-opacity: 0.75; stroke: #ffffff; stroke-width: 0.285634; stroke-linejoin: miter"/>
   </g>
   <g id="patch_22">
    <path d="M 406.219277 594.18 
L 425.228197 594.18 
L 425.228197 569.486205 
L 406.219277 569.486205 
z
" clip-path="url(#pd45098b243)" style="fill: #4c72b0; fill-opacity: 0.75; stroke: #ffffff; stroke-width: 0.285634; stroke-linejoin: miter"/>
   </g>
   <g id="patch_23">
    <path d="M 425.228197 594.18 
L 444.237117 594.18 
L 444.237117 569.486205 
L 425.228197 569.486205 
z
" clip-path="url(#pd45098b243)" style="fill: #4c72b0; fill-opacity: 0.75; stroke: #ffffff; stroke-width: 0.285634; stroke-linejoin: miter"/>
   </g>
   <g id="patch_24">
    <path d="M 444.237117 594.18 
L 463.246038 594.18 
L 463.246038 587.445329 
L 444.237117 587.445329 
z
" clip-path="url(#pd45098b243)" style="fill: #4c72b0; fill-opacity: 0.75; stroke: #ffffff; stroke-width: 0.285634; stroke-linejoin: miter"/>
   </g>
   <g id="patch_25">
    <path d="M 463.246038 594.18 
L 482.254958 594.18 
L 482.254958 571.731095 
L 463.246038 571.731095 
z
" clip-path="url(#pd45098b243)" style="fill: #4c72b0; fill-opacity: 0.75; stroke: #ffffff; stroke-width: 0.285634; stroke-linejoin: miter"/>
   </g>
   <g id="patch_26">
    <path d="M 482.254958 594.18 
L 501.263878 594.18 
L 501.263878 582.955548 
L 482.254958 582.955548 
z
" clip-path="url(#pd45098b243)" style="fill: #4c72b0; fill-opacity: 0.75; stroke: #ffffff; stroke-width: 0.285634; stroke-linejoin: miter"/>
   </g>
   <g id="patch_27">
    <path d="M 501.263878 594.18 
L 520.272798 594.18 
L 520.272798 580.710657 
L 501.263878 580.710657 
z
" clip-path="url(#pd45098b243)" style="fill: #4c72b0; fill-opacity: 0.75; stroke: #ffffff; stroke-width: 0.285634; stroke-linejoin: miter"/>
   </g>
   <g id="patch_28">
    <path d="M 520.272798 594.18 
L 539.281718 594.18 
L 539.281718 582.955548 
L 520.272798 582.955548 
z
" clip-path="url(#pd45098b243)" style="fill: #4c72b0; fill-opacity: 0.75; stroke: #ffffff; stroke-width: 0.285634; stroke-linejoin: miter"/>
   </g>
   <g id="patch_29">
    <path d="M 539.281718 594.18 
L 558.290638 594.18 
L 558.290638 580.710657 
L 539.281718 580.710657 
z
" clip-path="url(#pd45098b243)" style="fill: #4c72b0; fill-opacity: 0.75; stroke: #ffffff; stroke-width: 0.285634; stroke-linejoin: miter"/>
   </g>
   <g id="patch_30">
    <path d="M 558.290638 594.18 
L 577.299558 594.18 
L 577.299558 585.200438 
L 558.290638 585.200438 
z
" clip-path="url(#pd45098b243)" style="fill: #4c72b0; fill-opacity: 0.75; stroke: #ffffff; stroke-width: 0.285634; stroke-linejoin: miter"/>
   </g>
   <g id="patch_31">
    <path d="M 577.299558 594.18 
L 596.308478 594.18 
L 596.308478 587.445329 
L 577.299558 587.445329 
z
" clip-path="url(#pd45098b243)" style="fill: #4c72b0; fill-opacity: 0.75; stroke: #ffffff; stroke-width: 0.285634; stroke-linejoin: miter"/>
   </g>
   <g id="patch_32">
    <path d="M 596.308478 594.18 
L 615.317398 594.18 
L 615.317398 589.690219 
L 596.308478 589.690219 
z
" clip-path="url(#pd45098b243)" style="fill: #4c72b0; fill-opacity: 0.75; stroke: #ffffff; stroke-width: 0.285634; stroke-linejoin: miter"/>
   </g>
   <g id="patch_33">
    <path d="M 615.317398 594.18 
L 634.326318 594.18 
L 634.326318 587.445329 
L 615.317398 587.445329 
z
" clip-path="url(#pd45098b243)" style="fill: #4c72b0; fill-opacity: 0.75; stroke: #ffffff; stroke-width: 0.285634; stroke-linejoin: miter"/>
   </g>
   <g id="patch_34">
    <path d="M 634.326318 594.18 
L 653.335238 594.18 
L 653.335238 587.445329 
L 634.326318 587.445329 
z
" clip-path="url(#pd45098b243)" style="fill: #4c72b0; fill-opacity: 0.75; stroke: #ffffff; stroke-width: 0.285634; stroke-linejoin: miter"/>
   </g>
   <g id="patch_35">
    <path d="M 653.335238 594.18 
L 672.344158 594.18 
L 672.344158 589.690219 
L 653.335238 589.690219 
z
" clip-path="url(#pd45098b243)" style="fill: #4c72b0; fill-opacity: 0.75; stroke: #ffffff; stroke-width: 0.285634; stroke-linejoin: miter"/>
   </g>
   <g id="patch_36">
    <path d="M 672.344158 594.18 
L 691.353078 594.18 
L 691.353078 589.690219 
L 672.344158 589.690219 
z
" clip-path="url(#pd45098b243)" style="fill: #4c72b0; fill-opacity: 0.75; stroke: #ffffff; stroke-width: 0.285634; stroke-linejoin: miter"/>
   </g>
   <g id="patch_37">
    <path d="M 691.353078 594.18 
L 710.361998 594.18 
L 710.361998 589.690219 
L 691.353078 589.690219 
z
" clip-path="url(#pd45098b243)" style="fill: #4c72b0; fill-opacity: 0.75; stroke: #ffffff; stroke-width: 0.285634; stroke-linejoin: miter"/>
   </g>
   <g id="patch_38">
    <path d="M 710.361998 594.18 
L 729.370918 594.18 
L 729.370918 591.93511 
L 710.361998 591.93511 
z
" clip-path="url(#pd45098b243)" style="fill: #4c72b0; fill-opacity: 0.75; stroke: #ffffff; stroke-width: 0.285634; stroke-linejoin: miter"/>
   </g>
   <g id="patch_39">
    <path d="M 729.370918 594.18 
L 748.379838 594.18 
L 748.379838 591.93511 
L 729.370918 591.93511 
z
" clip-path="url(#pd45098b243)" style="fill: #4c72b0; fill-opacity: 0.75; stroke: #ffffff; stroke-width: 0.285634; stroke-linejoin: miter"/>
   </g>
   <g id="patch_40">
    <path d="M 748.379838 594.18 
L 767.388758 594.18 
L 767.388758 591.93511 
L 748.379838 591.93511 
z
" clip-path="url(#pd45098b243)" style="fill: #4c72b0; fill-opacity: 0.75; stroke: #ffffff; stroke-width: 0.285634; stroke-linejoin: miter"/>
   </g>
   <g id="patch_41">
    <path d="M 767.388758 594.18 
L 786.397678 594.18 
L 786.397678 594.18 
L 767.388758 594.18 
z
" clip-path="url(#pd45098b243)" style="fill: #4c72b0; fill-opacity: 0.75; stroke: #ffffff; stroke-width: 0.285634; stroke-linejoin: miter"/>
   </g>
   <g id="patch_42">
    <path d="M 786.397678 594.18 
L 805.406598 594.18 
L 805.406598 589.690219 
L 786.397678 589.690219 
z
" clip-path="url(#pd45098b243)" style="fill: #4c72b0; fill-opacity: 0.75; stroke: #ffffff; stroke-width: 0.285634; stroke-linejoin: miter"/>
   </g>
   <g id="patch_43">
    <path d="M 805.406598 594.18 
L 824.415518 594.18 
L 824.415518 591.93511 
L 805.406598 591.93511 
z
" clip-path="url(#pd45098b243)" style="fill: #4c72b0; fill-opacity: 0.75; stroke: #ffffff; stroke-width: 0.285634; stroke-linejoin: miter"/>
   </g>
   <g id="patch_44">
    <path d="M 824.415518 594.18 
L 843.424438 594.18 
L 843.424438 594.18 
L 824.415518 594.18 
z
" clip-path="url(#pd45098b243)" style="fill: #4c72b0; fill-opacity: 0.75; stroke: #ffffff; stroke-width: 0.285634; stroke-linejoin: miter"/>
   </g>
   <g id="patch_45">
    <path d="M 843.424438 594.18 
L 862.433358 594.18 
L 862.433358 589.690219 
L 843.424438 589.690219 
z
" clip-path="url(#pd45098b243)" style="fill: #4c72b0; fill-opacity: 0.75; stroke: #ffffff; stroke-width: 0.285634; stroke-linejoin: miter"/>
   </g>
   <g id="patch_46">
    <path d="M 862.433358 594.18 
L 881.442279 594.18 
L 881.442279 594.18 
L 862.433358 594.18 
z
" clip-path="url(#pd45098b243)" style="fill: #4c72b0; fill-opacity: 0.75; stroke: #ffffff; stroke-width: 0.285634; stroke-linejoin: miter"/>
   </g>
   <g id="patch_47">
    <path d="M 881.442279 594.18 
L 900.451199 594.18 
L 900.451199 591.93511 
L 881.442279 591.93511 
z
" clip-path="url(#pd45098b243)" style="fill: #4c72b0; fill-opacity: 0.75; stroke: #ffffff; stroke-width: 0.285634; stroke-linejoin: miter"/>
   </g>
   <g id="patch_48">
    <path d="M 900.451199 594.18 
L 919.460119 594.18 
L 919.460119 594.18 
L 900.451199 594.18 
z
" clip-path="url(#pd45098b243)" style="fill: #4c72b0; fill-opacity: 0.75; stroke: #ffffff; stroke-width: 0.285634; stroke-linejoin: miter"/>
   </g>
   <g id="patch_49">
    <path d="M 919.460119 594.18 
L 938.469039 594.18 
L 938.469039 594.18 
L 919.460119 594.18 
z
" clip-path="url(#pd45098b243)" style="fill: #4c72b0; fill-opacity: 0.75; stroke: #ffffff; stroke-width: 0.285634; stroke-linejoin: miter"/>
   </g>
   <g id="patch_50">
    <path d="M 938.469039 594.18 
L 957.477959 594.18 
L 957.477959 594.18 
L 938.469039 594.18 
z
" clip-path="url(#pd45098b243)" style="fill: #4c72b0; fill-opacity: 0.75; stroke: #ffffff; stroke-width: 0.285634; stroke-linejoin: miter"/>
   </g>
   <g id="patch_51">
    <path d="M 957.477959 594.18 
L 976.486879 594.18 
L 976.486879 591.93511 
L 957.477959 591.93511 
z
" clip-path="url(#pd45098b243)" style="fill: #4c72b0; fill-opacity: 0.75; stroke: #ffffff; stroke-width: 0.285634; stroke-linejoin: miter"/>
   </g>
   <g id="patch_52">
    <path d="M 976.486879 594.18 
L 995.495799 594.18 
L 995.495799 594.18 
L 976.486879 594.18 
z
" clip-path="url(#pd45098b243)" style="fill: #4c72b0; fill-opacity: 0.75; stroke: #ffffff; stroke-width: 0.285634; stroke-linejoin: miter"/>
   </g>
   <g id="patch_53">
    <path d="M 995.495799 594.18 
L 1014.504719 594.18 
L 1014.504719 594.18 
L 995.495799 594.18 
z
" clip-path="url(#pd45098b243)" style="fill: #4c72b0; fill-opacity: 0.75; stroke: #ffffff; stroke-width: 0.285634; stroke-linejoin: miter"/>
   </g>
   <g id="patch_54">
    <path d="M 1014.504719 594.18 
L 1033.513639 594.18 
L 1033.513639 591.93511 
L 1014.504719 591.93511 
z
" clip-path="url(#pd45098b243)" style="fill: #4c72b0; fill-opacity: 0.75; stroke: #ffffff; stroke-width: 0.285634; stroke-linejoin: miter"/>
   </g>
   <g id="patch_55">
    <path d="M 1033.513639 594.18 
L 1052.522559 594.18 
L 1052.522559 594.18 
L 1033.513639 594.18 
z
" clip-path="url(#pd45098b243)" style="fill: #4c72b0; fill-opacity: 0.75; stroke: #ffffff; stroke-width: 0.285634; stroke-linejoin: miter"/>
   </g>
   <g id="patch_56">
    <path d="M 1052.522559 594.18 
L 1071.531479 594.18 
L 1071.531479 591.93511 
L 1052.522559 591.93511 
z
" clip-path="url(#pd45098b243)" style="fill: #4c72b0; fill-opacity: 0.75; stroke: #ffffff; stroke-width: 0.285634; stroke-linejoin: miter"/>
   </g>
   <g id="patch_57">
    <path d="M 1071.531479 594.18 
L 1090.540399 594.18 
L 1090.540399 594.18 
L 1071.531479 594.18 
z
" clip-path="url(#pd45098b243)" style="fill: #4c72b0; fill-opacity: 0.75; stroke: #ffffff; stroke-width: 0.285634; stroke-linejoin: miter"/>
   </g>
   <g id="patch_58">
    <path d="M 1090.540399 594.18 
L 1109.549319 594.18 
L 1109.549319 594.18 
L 1090.540399 594.18 
z
" clip-path="url(#pd45098b243)" style="fill: #4c72b0; fill-opacity: 0.75; stroke: #ffffff; stroke-width: 0.285634; stroke-linejoin: miter"/>
   </g>
   <g id="patch_59">
    <path d="M 1109.549319 594.18 
L 1128.558239 594.18 
L 1128.558239 594.18 
L 1109.549319 594.18 
z
" clip-path="url(#pd45098b243)" style="fill: #4c72b0; fill-opacity: 0.75; stroke: #ffffff; stroke-width: 0.285634; stroke-linejoin: miter"/>
   </g>
   <g id="patch_60">
    <path d="M 1128.558239 594.18 
L 1147.567159 594.18 
L 1147.567159 591.93511 
L 1128.558239 591.93511 
z
" clip-path="url(#pd45098b243)" style="fill: #4c72b0; fill-opacity: 0.75; stroke: #ffffff; stroke-width: 0.285634; stroke-linejoin: miter"/>
   </g>
   <g id="patch_61">
    <path d="M 1147.567159 594.18 
L 1166.576079 594.18 
L 1166.576079 594.18 
L 1147.567159 594.18 
z
" clip-path="url(#pd45098b243)" style="fill: #4c72b0; fill-opacity: 0.75; stroke: #ffffff; stroke-width: 0.285634; stroke-linejoin: miter"/>
   </g>
   <g id="patch_62">
    <path d="M 1166.576079 594.18 
L 1185.584999 594.18 
L 1185.584999 594.18 
L 1166.576079 594.18 
z
" clip-path="url(#pd45098b243)" style="fill: #4c72b0; fill-opacity: 0.75; stroke: #ffffff; stroke-width: 0.285634; stroke-linejoin: miter"/>
   </g>
   <g id="patch_63">
    <path d="M 1185.584999 594.18 
L 1204.593919 594.18 
L 1204.593919 594.18 
L 1185.584999 594.18 
z
" clip-path="url(#pd45098b243)" style="fill: #4c72b0; fill-opacity: 0.75; stroke: #ffffff; stroke-width: 0.285634; stroke-linejoin: miter"/>
   </g>
   <g id="patch_64">
    <path d="M 1204.593919 594.18 
L 1223.602839 594.18 
L 1223.602839 594.18 
L 1204.593919 594.18 
z
" clip-path="url(#pd45098b243)" style="fill: #4c72b0; fill-opacity: 0.75; stroke: #ffffff; stroke-width: 0.285634; stroke-linejoin: miter"/>
   </g>
   <g id="patch_65">
    <path d="M 1223.602839 594.18 
L 1242.611759 594.18 
L 1242.611759 594.18 
L 1223.602839 594.18 
z
" clip-path="url(#pd45098b243)" style="fill: #4c72b0; fill-opacity: 0.75; stroke: #ffffff; stroke-width: 0.285634; stroke-linejoin: miter"/>
   </g>
   <g id="patch_66">
    <path d="M 1242.611759 594.18 
L 1261.620679 594.18 
L 1261.620679 594.18 
L 1242.611759 594.18 
z
" clip-path="url(#pd45098b243)" style="fill: #4c72b0; fill-opacity: 0.75; stroke: #ffffff; stroke-width: 0.285634; stroke-linejoin: miter"/>
   </g>
   <g id="patch_67">
    <path d="M 1261.620679 594.18 
L 1280.629599 594.18 
L 1280.629599 594.18 
L 1261.620679 594.18 
z
" clip-path="url(#pd45098b243)" style="fill: #4c72b0; fill-opacity: 0.75; stroke: #ffffff; stroke-width: 0.285634; stroke-linejoin: miter"/>
   </g>
   <g id="patch_68">
    <path d="M 1280.629599 594.18 
L 1299.63852 594.18 
L 1299.63852 594.18 
L 1280.629599 594.18 
z
" clip-path="url(#pd45098b243)" style="fill: #4c72b0; fill-opacity: 0.75; stroke: #ffffff; stroke-width: 0.285634; stroke-linejoin: miter"/>
   </g>
   <g id="patch_69">
    <path d="M 1299.63852 594.18 
L 1318.64744 594.18 
L 1318.64744 594.18 
L 1299.63852 594.18 
z
" clip-path="url(#pd45098b243)" style="fill: #4c72b0; fill-opacity: 0.75; stroke: #ffffff; stroke-width: 0.285634; stroke-linejoin: miter"/>
   </g>
   <g id="patch_70">
    <path d="M 1318.64744 594.18 
L 1337.65636 594.18 
L 1337.65636 594.18 
L 1318.64744 594.18 
z
" clip-path="url(#pd45098b243)" style="fill: #4c72b0; fill-opacity: 0.75; stroke: #ffffff; stroke-width: 0.285634; stroke-linejoin: miter"/>
   </g>
   <g id="patch_71">
    <path d="M 1337.65636 594.18 
L 1356.66528 594.18 
L 1356.66528 594.18 
L 1337.65636 594.18 
z
" clip-path="url(#pd45098b243)" style="fill: #4c72b0; fill-opacity: 0.75; stroke: #ffffff; stroke-width: 0.285634; stroke-linejoin: miter"/>
   </g>
   <g id="patch_72">
    <path d="M 1356.66528 594.18 
L 1375.6742 594.18 
L 1375.6742 594.18 
L 1356.66528 594.18 
z
" clip-path="url(#pd45098b243)" style="fill: #4c72b0; fill-opacity: 0.75; stroke: #ffffff; stroke-width: 0.285634; stroke-linejoin: miter"/>
   </g>
   <g id="patch_73">
    <path d="M 1375.6742 594.18 
L 1394.68312 594.18 
L 1394.68312 594.18 
L 1375.6742 594.18 
z
" clip-path="url(#pd45098b243)" style="fill: #4c72b0; fill-opacity: 0.75; stroke: #ffffff; stroke-width: 0.285634; stroke-linejoin: miter"/>
   </g>
   <g id="patch_74">
    <path d="M 1394.68312 594.18 
L 1413.69204 594.18 
L 1413.69204 594.18 
L 1394.68312 594.18 
z
" clip-path="url(#pd45098b243)" style="fill: #4c72b0; fill-opacity: 0.75; stroke: #ffffff; stroke-width: 0.285634; stroke-linejoin: miter"/>
   </g>
   <g id="patch_75">
    <path d="M 1413.69204 594.18 
L 1432.70096 594.18 
L 1432.70096 594.18 
L 1413.69204 594.18 
z
" clip-path="url(#pd45098b243)" style="fill: #4c72b0; fill-opacity: 0.75; stroke: #ffffff; stroke-width: 0.285634; stroke-linejoin: miter"/>
   </g>
   <g id="patch_76">
    <path d="M 1432.70096 594.18 
L 1451.70988 594.18 
L 1451.70988 594.18 
L 1432.70096 594.18 
z
" clip-path="url(#pd45098b243)" style="fill: #4c72b0; fill-opacity: 0.75; stroke: #ffffff; stroke-width: 0.285634; stroke-linejoin: miter"/>
   </g>
   <g id="patch_77">
    <path d="M 1451.70988 594.18 
L 1470.7188 594.18 
L 1470.7188 594.18 
L 1451.70988 594.18 
z
" clip-path="url(#pd45098b243)" style="fill: #4c72b0; fill-opacity: 0.75; stroke: #ffffff; stroke-width: 0.285634; stroke-linejoin: miter"/>
   </g>
   <g id="patch_78">
    <path d="M 1470.7188 594.18 
L 1489.72772 594.18 
L 1489.72772 594.18 
L 1470.7188 594.18 
z
" clip-path="url(#pd45098b243)" style="fill: #4c72b0; fill-opacity: 0.75; stroke: #ffffff; stroke-width: 0.285634; stroke-linejoin: miter"/>
   </g>
   <g id="patch_79">
    <path d="M 1489.72772 594.18 
L 1508.73664 594.18 
L 1508.73664 594.18 
L 1489.72772 594.18 
z
" clip-path="url(#pd45098b243)" style="fill: #4c72b0; fill-opacity: 0.75; stroke: #ffffff; stroke-width: 0.285634; stroke-linejoin: miter"/>
   </g>
   <g id="patch_80">
    <path d="M 1508.73664 594.18 
L 1527.74556 594.18 
L 1527.74556 594.18 
L 1508.73664 594.18 
z
" clip-path="url(#pd45098b243)" style="fill: #4c72b0; fill-opacity: 0.75; stroke: #ffffff; stroke-width: 0.285634; stroke-linejoin: miter"/>
   </g>
   <g id="patch_81">
    <path d="M 1527.74556 594.18 
L 1546.75448 594.18 
L 1546.75448 594.18 
L 1527.74556 594.18 
z
" clip-path="url(#pd45098b243)" style="fill: #4c72b0; fill-opacity: 0.75; stroke: #ffffff; stroke-width: 0.285634; stroke-linejoin: miter"/>
   </g>
   <g id="patch_82">
    <path d="M 1546.75448 594.18 
L 1565.7634 594.18 
L 1565.7634 594.18 
L 1546.75448 594.18 
z
" clip-path="url(#pd45098b243)" style="fill: #4c72b0; fill-opacity: 0.75; stroke: #ffffff; stroke-width: 0.285634; stroke-linejoin: miter"/>
   </g>
   <g id="patch_83">
    <path d="M 1565.7634 594.18 
L 1584.77232 594.18 
L 1584.77232 594.18 
L 1565.7634 594.18 
z
" clip-path="url(#pd45098b243)" style="fill: #4c72b0; fill-opacity: 0.75; stroke: #ffffff; stroke-width: 0.285634; stroke-linejoin: miter"/>
   </g>
   <g id="patch_84">
    <path d="M 1584.77232 594.18 
L 1603.78124 594.18 
L 1603.78124 594.18 
L 1584.77232 594.18 
z
" clip-path="url(#pd45098b243)" style="fill: #4c72b0; fill-opacity: 0.75; stroke: #ffffff; stroke-width: 0.285634; stroke-linejoin: miter"/>
   </g>
   <g id="patch_85">
    <path d="M 1603.78124 594.18 
L 1622.79016 594.18 
L 1622.79016 594.18 
L 1603.78124 594.18 
z
" clip-path="url(#pd45098b243)" style="fill: #4c72b0; fill-opacity: 0.75; stroke: #ffffff; stroke-width: 0.285634; stroke-linejoin: miter"/>
   </g>
   <g id="patch_86">
    <path d="M 1622.79016 594.18 
L 1641.79908 594.18 
L 1641.79908 594.18 
L 1622.79016 594.18 
z
" clip-path="url(#pd45098b243)" style="fill: #4c72b0; fill-opacity: 0.75; stroke: #ffffff; stroke-width: 0.285634; stroke-linejoin: miter"/>
   </g>
   <g id="patch_87">
    <path d="M 1641.79908 594.18 
L 1660.808 594.18 
L 1660.808 594.18 
L 1641.79908 594.18 
z
" clip-path="url(#pd45098b243)" style="fill: #4c72b0; fill-opacity: 0.75; stroke: #ffffff; stroke-width: 0.285634; stroke-linejoin: miter"/>
   </g>
   <g id="patch_88">
    <path d="M 1660.808 594.18 
L 1679.81692 594.18 
L 1679.81692 594.18 
L 1660.808 594.18 
z
" clip-path="url(#pd45098b243)" style="fill: #4c72b0; fill-opacity: 0.75; stroke: #ffffff; stroke-width: 0.285634; stroke-linejoin: miter"/>
   </g>
   <g id="patch_89">
    <path d="M 1679.81692 594.18 
L 1698.82584 594.18 
L 1698.82584 591.93511 
L 1679.81692 591.93511 
z
" clip-path="url(#pd45098b243)" style="fill: #4c72b0; fill-opacity: 0.75; stroke: #ffffff; stroke-width: 0.285634; stroke-linejoin: miter"/>
   </g>
   <g id="patch_90">
    <path d="M 1698.82584 594.18 
L 1717.834761 594.18 
L 1717.834761 594.18 
L 1698.82584 594.18 
z
" clip-path="url(#pd45098b243)" style="fill: #4c72b0; fill-opacity: 0.75; stroke: #ffffff; stroke-width: 0.285634; stroke-linejoin: miter"/>
   </g>
   <g id="patch_91">
    <path d="M 1717.834761 594.18 
L 1736.843681 594.18 
L 1736.843681 594.18 
L 1717.834761 594.18 
z
" clip-path="url(#pd45098b243)" style="fill: #4c72b0; fill-opacity: 0.75; stroke: #ffffff; stroke-width: 0.285634; stroke-linejoin: miter"/>
   </g>
   <g id="patch_92">
    <path d="M 1736.843681 594.18 
L 1755.852601 594.18 
L 1755.852601 594.18 
L 1736.843681 594.18 
z
" clip-path="url(#pd45098b243)" style="fill: #4c72b0; fill-opacity: 0.75; stroke: #ffffff; stroke-width: 0.285634; stroke-linejoin: miter"/>
   </g>
   <g id="patch_93">
    <path d="M 1755.852601 594.18 
L 1774.861521 594.18 
L 1774.861521 594.18 
L 1755.852601 594.18 
z
" clip-path="url(#pd45098b243)" style="fill: #4c72b0; fill-opacity: 0.75; stroke: #ffffff; stroke-width: 0.285634; stroke-linejoin: miter"/>
   </g>
   <g id="patch_94">
    <path d="M 1774.861521 594.18 
L 1793.870441 594.18 
L 1793.870441 594.18 
L 1774.861521 594.18 
z
" clip-path="url(#pd45098b243)" style="fill: #4c72b0; fill-opacity: 0.75; stroke: #ffffff; stroke-width: 0.285634; stroke-linejoin: miter"/>
   </g>
   <g id="patch_95">
    <path d="M 1793.870441 594.18 
L 1812.879361 594.18 
L 1812.879361 594.18 
L 1793.870441 594.18 
z
" clip-path="url(#pd45098b243)" style="fill: #4c72b0; fill-opacity: 0.75; stroke: #ffffff; stroke-width: 0.285634; stroke-linejoin: miter"/>
   </g>
   <g id="patch_96">
    <path d="M 1812.879361 594.18 
L 1831.888281 594.18 
L 1831.888281 594.18 
L 1812.879361 594.18 
z
" clip-path="url(#pd45098b243)" style="fill: #4c72b0; fill-opacity: 0.75; stroke: #ffffff; stroke-width: 0.285634; stroke-linejoin: miter"/>
   </g>
   <g id="patch_97">
    <path d="M 1831.888281 594.18 
L 1850.897201 594.18 
L 1850.897201 594.18 
L 1831.888281 594.18 
z
" clip-path="url(#pd45098b243)" style="fill: #4c72b0; fill-opacity: 0.75; stroke: #ffffff; stroke-width: 0.285634; stroke-linejoin: miter"/>
   </g>
   <g id="patch_98">
    <path d="M 1850.897201 594.18 
L 1869.906121 594.18 
L 1869.906121 591.93511 
L 1850.897201 591.93511 
z
" clip-path="url(#pd45098b243)" style="fill: #4c72b0; fill-opacity: 0.75; stroke: #ffffff; stroke-width: 0.285634; stroke-linejoin: miter"/>
   </g>
   <g id="patch_99">
    <path d="M 44.195313 594.18 
L 44.195313 33.181875 
" style="fill: none; stroke: #ffffff; stroke-width: 1.25; stroke-linejoin: miter; stroke-linecap: square"/>
   </g>
   <g id="patch_100">
    <path d="M 44.195313 594.18 
L 845.274062 594.18 
" style="fill: none; stroke: #ffffff; stroke-width: 1.25; stroke-linejoin: miter; stroke-linecap: square"/>
   </g>
  </g>
  <g id="text_18">
   <!-- Distribution of playarea across playgrounds -->
   <g style="fill: #262626" transform="translate(288.170687 17.68275) scale(0.144 -0.144)">
    <defs>
     <path id="ArialMT-44" d="M 494 0 
L 494 4581 
L 2072 4581 
Q 2606 4581 2888 4516 
Q 3281 4425 3559 4188 
Q 3922 3881 4101 3404 
Q 4281 2928 4281 2316 
Q 4281 1794 4159 1391 
Q 4038 988 3847 723 
Q 3656 459 3429 307 
Q 3203 156 2883 78 
Q 2563 0 2147 0 
L 494 0 
z
M 1100 541 
L 2078 541 
Q 2531 541 2789 625 
Q 3047 709 3200 863 
Q 3416 1078 3536 1442 
Q 3656 1806 3656 2325 
Q 3656 3044 3420 3430 
Q 3184 3816 2847 3947 
Q 2603 4041 2063 4041 
L 1100 4041 
L 1100 541 
z
" transform="scale(0.015625)"/>
     <path id="ArialMT-62" d="M 941 0 
L 419 0 
L 419 4581 
L 981 4581 
L 981 2947 
Q 1338 3394 1891 3394 
Q 2197 3394 2470 3270 
Q 2744 3147 2920 2923 
Q 3097 2700 3197 2384 
Q 3297 2069 3297 1709 
Q 3297 856 2875 390 
Q 2453 -75 1863 -75 
Q 1275 -75 941 416 
L 941 0 
z
M 934 1684 
Q 934 1088 1097 822 
Q 1363 388 1816 388 
Q 2184 388 2453 708 
Q 2722 1028 2722 1663 
Q 2722 2313 2464 2622 
Q 2206 2931 1841 2931 
Q 1472 2931 1203 2611 
Q 934 2291 934 1684 
z
" transform="scale(0.015625)"/>
    </defs>
    <use xlink:href="#ArialMT-44"/>
    <use xlink:href="#ArialMT-69" x="72.216797"/>
    <use xlink:href="#ArialMT-73" x="94.433594"/>
    <use xlink:href="#ArialMT-74" x="144.433594"/>
    <use xlink:href="#ArialMT-72" x="172.216797"/>
    <use xlink:href="#ArialMT-69" x="205.517578"/>
    <use xlink:href="#ArialMT-62" x="227.734375"/>
    <use xlink:href="#ArialMT-75" x="283.349609"/>
    <use xlink:href="#ArialMT-74" x="338.964844"/>
    <use xlink:href="#ArialMT-69" x="366.748047"/>
    <use xlink:href="#ArialMT-6f" x="388.964844"/>
    <use xlink:href="#ArialMT-6e" x="444.580078"/>
    <use xlink:href="#ArialMT-20" x="500.195312"/>
    <use xlink:href="#ArialMT-6f" x="527.978516"/>
    <use xlink:href="#ArialMT-66" x="583.59375"/>
    <use xlink:href="#ArialMT-20" x="611.376953"/>
    <use xlink:href="#ArialMT-70" x="639.160156"/>
    <use xlink:href="#ArialMT-6c" x="694.775391"/>
    <use xlink:href="#ArialMT-61" x="716.992188"/>
    <use xlink:href="#ArialMT-79" x="772.607422"/>
    <use xlink:href="#ArialMT-61" x="822.607422"/>
    <use xlink:href="#ArialMT-72" x="878.222656"/>
    <use xlink:href="#ArialMT-65" x="911.523438"/>
    <use xlink:href="#ArialMT-61" x="967.138672"/>
    <use xlink:href="#ArialMT-20" x="1022.753906"/>
    <use xlink:href="#ArialMT-61" x="1050.537109"/>
    <use xlink:href="#ArialMT-63" x="1106.152344"/>
    <use xlink:href="#ArialMT-72" x="1156.152344"/>
    <use xlink:href="#ArialMT-6f" x="1189.453125"/>
    <use xlink:href="#ArialMT-73" x="1245.068359"/>
    <use xlink:href="#ArialMT-73" x="1295.068359"/>
    <use xlink:href="#ArialMT-20" x="1345.068359"/>
    <use xlink:href="#ArialMT-70" x="1372.851562"/>
    <use xlink:href="#ArialMT-6c" x="1428.466797"/>
    <use xlink:href="#ArialMT-61" x="1450.683594"/>
    <use xlink:href="#ArialMT-79" x="1506.298828"/>
    <use xlink:href="#ArialMT-67" x="1556.298828"/>
    <use xlink:href="#ArialMT-72" x="1611.914062"/>
    <use xlink:href="#ArialMT-6f" x="1645.214844"/>
    <use xlink:href="#ArialMT-75" x="1700.830078"/>
    <use xlink:href="#ArialMT-6e" x="1756.445312"/>
    <use xlink:href="#ArialMT-64" x="1812.060547"/>
    <use xlink:href="#ArialMT-73" x="1867.675781"/>
   </g>
  </g>
 </g>
 <defs>
  <clipPath id="pd45098b243">
   <rect x="44.195313" y="33.181875" width="801.07875" height="560.998125"/>
  </clipPath>
 </defs>
</svg>
