<?xml version="1.0" encoding="utf-8" standalone="no"?>
<!DOCTYPE svg PUBLIC "-//W3C//DTD SVG 1.1//EN"
  "http://www.w3.org/Graphics/SVG/1.1/DTD/svg11.dtd">
<svg xmlns:xlink="http://www.w3.org/1999/xlink" width="852.527344pt" height="636.201094pt" viewBox="0 0 852.527344 636.201094" xmlns="http://www.w3.org/2000/svg" version="1.1">
 <metadata>
  <rdf:RDF xmlns:dc="http://purl.org/dc/elements/1.1/" xmlns:cc="http://creativecommons.org/ns#" xmlns:rdf="http://www.w3.org/1999/02/22-rdf-syntax-ns#">
   <cc:Work>
    <dc:type rdf:resource="http://purl.org/dc/dcmitype/StillImage"/>
    <dc:date>2023-06-08T21:24:05.894521</dc:date>
    <dc:format>image/svg+xml</dc:format>
    <dc:creator>
     <cc:Agent>
      <dc:title>Matplotlib v3.7.1, https://matplotlib.org/</dc:title>
     </cc:Agent>
    </dc:creator>
   </cc:Work>
  </rdf:RDF>
 </metadata>
 <defs>
  <style type="text/css">*{stroke-linejoin: round; stroke-linecap: butt}</style>
 </defs>
 <g id="figure_1">
  <g id="patch_1">
   <path d="M 0 636.201094 
L 852.527344 636.201094 
L 852.527344 0 
L 0 0 
z
" style="fill: #ffffff"/>
  </g>
  <g id="axes_1">
   <g id="patch_2">
    <path d="M 50.312344 594.18 
L 845.327344 594.18 
L 845.327344 33.181875 
L 50.312344 33.181875 
z
" style="fill: #eaeaf2"/>
   </g>
   <g id="matplotlib.axis_1">
    <g id="xtick_1">
     <g id="line2d_1">
      <path d="M 86.110968 594.18 
L 86.110968 33.181875 
" clip-path="url(#pe771c48af5)" style="fill: none; stroke: #ffffff; stroke-linecap: round"/>
     </g>
     <g id="text_1">
      <!-- 0 -->
      <g style="fill: #262626" transform="translate(83.052452 611.553594) scale(0.11 -0.11)">
       <defs>
        <path id="ArialMT-30" d="M 266 2259 
Q 266 3072 433 3567 
Q 600 4063 929 4331 
Q 1259 4600 1759 4600 
Q 2128 4600 2406 4451 
Q 2684 4303 2865 4023 
Q 3047 3744 3150 3342 
Q 3253 2941 3253 2259 
Q 3253 1453 3087 958 
Q 2922 463 2592 192 
Q 2263 -78 1759 -78 
Q 1097 -78 719 397 
Q 266 969 266 2259 
z
M 844 2259 
Q 844 1131 1108 757 
Q 1372 384 1759 384 
Q 2147 384 2411 759 
Q 2675 1134 2675 2259 
Q 2675 3391 2411 3762 
Q 2147 4134 1753 4134 
Q 1366 4134 1134 3806 
Q 844 3388 844 2259 
z
" transform="scale(0.015625)"/>
       </defs>
       <use xlink:href="#ArialMT-30"/>
      </g>
     </g>
    </g>
    <g id="xtick_2">
     <g id="line2d_2">
      <path d="M 191.867674 594.18 
L 191.867674 33.181875 
" clip-path="url(#pe771c48af5)" style="fill: none; stroke: #ffffff; stroke-linecap: round"/>
     </g>
     <g id="text_2">
      <!-- 2500 -->
      <g style="fill: #262626" transform="translate(179.633612 611.553594) scale(0.11 -0.11)">
       <defs>
        <path id="ArialMT-32" d="M 3222 541 
L 3222 0 
L 194 0 
Q 188 203 259 391 
Q 375 700 629 1000 
Q 884 1300 1366 1694 
Q 2113 2306 2375 2664 
Q 2638 3022 2638 3341 
Q 2638 3675 2398 3904 
Q 2159 4134 1775 4134 
Q 1369 4134 1125 3890 
Q 881 3647 878 3216 
L 300 3275 
Q 359 3922 746 4261 
Q 1134 4600 1788 4600 
Q 2447 4600 2831 4234 
Q 3216 3869 3216 3328 
Q 3216 3053 3103 2787 
Q 2991 2522 2730 2228 
Q 2469 1934 1863 1422 
Q 1356 997 1212 845 
Q 1069 694 975 541 
L 3222 541 
z
" transform="scale(0.015625)"/>
        <path id="ArialMT-35" d="M 266 1200 
L 856 1250 
Q 922 819 1161 601 
Q 1400 384 1738 384 
Q 2144 384 2425 690 
Q 2706 997 2706 1503 
Q 2706 1984 2436 2262 
Q 2166 2541 1728 2541 
Q 1456 2541 1237 2417 
Q 1019 2294 894 2097 
L 366 2166 
L 809 4519 
L 3088 4519 
L 3088 3981 
L 1259 3981 
L 1013 2750 
Q 1425 3038 1878 3038 
Q 2478 3038 2890 2622 
Q 3303 2206 3303 1553 
Q 3303 931 2941 478 
Q 2500 -78 1738 -78 
Q 1113 -78 717 272 
Q 322 622 266 1200 
z
" transform="scale(0.015625)"/>
       </defs>
       <use xlink:href="#ArialMT-32"/>
       <use xlink:href="#ArialMT-35" x="55.615234"/>
       <use xlink:href="#ArialMT-30" x="111.230469"/>
       <use xlink:href="#ArialMT-30" x="166.845703"/>
      </g>
     </g>
    </g>
    <g id="xtick_3">
     <g id="line2d_3">
      <path d="M 297.624381 594.18 
L 297.624381 33.181875 
" clip-path="url(#pe771c48af5)" style="fill: none; stroke: #ffffff; stroke-linecap: round"/>
     </g>
     <g id="text_3">
      <!-- 5000 -->
      <g style="fill: #262626" transform="translate(285.390318 611.553594) scale(0.11 -0.11)">
       <use xlink:href="#ArialMT-35"/>
       <use xlink:href="#ArialMT-30" x="55.615234"/>
       <use xlink:href="#ArialMT-30" x="111.230469"/>
       <use xlink:href="#ArialMT-30" x="166.845703"/>
      </g>
     </g>
    </g>
    <g id="xtick_4">
     <g id="line2d_4">
      <path d="M 403.381087 594.18 
L 403.381087 33.181875 
" clip-path="url(#pe771c48af5)" style="fill: none; stroke: #ffffff; stroke-linecap: round"/>
     </g>
     <g id="text_4">
      <!-- 7500 -->
      <g style="fill: #262626" transform="translate(391.147025 611.553594) scale(0.11 -0.11)">
       <defs>
        <path id="ArialMT-37" d="M 303 3981 
L 303 4522 
L 3269 4522 
L 3269 4084 
Q 2831 3619 2401 2847 
Q 1972 2075 1738 1259 
Q 1569 684 1522 0 
L 944 0 
Q 953 541 1156 1306 
Q 1359 2072 1739 2783 
Q 2119 3494 2547 3981 
L 303 3981 
z
" transform="scale(0.015625)"/>
       </defs>
       <use xlink:href="#ArialMT-37"/>
       <use xlink:href="#ArialMT-35" x="55.615234"/>
       <use xlink:href="#ArialMT-30" x="111.230469"/>
       <use xlink:href="#ArialMT-30" x="166.845703"/>
      </g>
     </g>
    </g>
    <g id="xtick_5">
     <g id="line2d_5">
      <path d="M 509.137794 594.18 
L 509.137794 33.181875 
" clip-path="url(#pe771c48af5)" style="fill: none; stroke: #ffffff; stroke-linecap: round"/>
     </g>
     <g id="text_5">
      <!-- 10000 -->
      <g style="fill: #262626" transform="translate(493.845216 611.553594) scale(0.11 -0.11)">
       <defs>
        <path id="ArialMT-31" d="M 2384 0 
L 1822 0 
L 1822 3584 
Q 1619 3391 1289 3197 
Q 959 3003 697 2906 
L 697 3450 
Q 1169 3672 1522 3987 
Q 1875 4303 2022 4600 
L 2384 4600 
L 2384 0 
z
" transform="scale(0.015625)"/>
       </defs>
       <use xlink:href="#ArialMT-31"/>
       <use xlink:href="#ArialMT-30" x="55.615234"/>
       <use xlink:href="#ArialMT-30" x="111.230469"/>
       <use xlink:href="#ArialMT-30" x="166.845703"/>
       <use xlink:href="#ArialMT-30" x="222.460938"/>
      </g>
     </g>
    </g>
    <g id="xtick_6">
     <g id="line2d_6">
      <path d="M 614.8945 594.18 
L 614.8945 33.181875 
" clip-path="url(#pe771c48af5)" style="fill: none; stroke: #ffffff; stroke-linecap: round"/>
     </g>
     <g id="text_6">
      <!-- 12500 -->
      <g style="fill: #262626" transform="translate(599.601922 611.553594) scale(0.11 -0.11)">
       <use xlink:href="#ArialMT-31"/>
       <use xlink:href="#ArialMT-32" x="55.615234"/>
       <use xlink:href="#ArialMT-35" x="111.230469"/>
       <use xlink:href="#ArialMT-30" x="166.845703"/>
       <use xlink:href="#ArialMT-30" x="222.460938"/>
      </g>
     </g>
    </g>
    <g id="xtick_7">
     <g id="line2d_7">
      <path d="M 720.651207 594.18 
L 720.651207 33.181875 
" clip-path="url(#pe771c48af5)" style="fill: none; stroke: #ffffff; stroke-linecap: round"/>
     </g>
     <g id="text_7">
      <!-- 15000 -->
      <g style="fill: #262626" transform="translate(705.358629 611.553594) scale(0.11 -0.11)">
       <use xlink:href="#ArialMT-31"/>
       <use xlink:href="#ArialMT-35" x="55.615234"/>
       <use xlink:href="#ArialMT-30" x="111.230469"/>
       <use xlink:href="#ArialMT-30" x="166.845703"/>
       <use xlink:href="#ArialMT-30" x="222.460938"/>
      </g>
     </g>
    </g>
    <g id="xtick_8">
     <g id="line2d_8">
      <path d="M 826.407913 594.18 
L 826.407913 33.181875 
" clip-path="url(#pe771c48af5)" style="fill: none; stroke: #ffffff; stroke-linecap: round"/>
     </g>
     <g id="text_8">
      <!-- 17500 -->
      <g style="fill: #262626" transform="translate(811.115335 611.553594) scale(0.11 -0.11)">
       <use xlink:href="#ArialMT-31"/>
       <use xlink:href="#ArialMT-37" x="55.615234"/>
       <use xlink:href="#ArialMT-35" x="111.230469"/>
       <use xlink:href="#ArialMT-30" x="166.845703"/>
       <use xlink:href="#ArialMT-30" x="222.460938"/>
      </g>
     </g>
    </g>
    <g id="text_9">
     <!-- Playarea of playground [m²] -->
     <g style="fill: #262626" transform="translate(374.120156 626.475469) scale(0.12 -0.12)">
      <defs>
       <path id="ArialMT-50" d="M 494 0 
L 494 4581 
L 2222 4581 
Q 2678 4581 2919 4538 
Q 3256 4481 3484 4323 
Q 3713 4166 3852 3881 
Q 3991 3597 3991 3256 
Q 3991 2672 3619 2267 
Q 3247 1863 2275 1863 
L 1100 1863 
L 1100 0 
L 494 0 
z
M 1100 2403 
L 2284 2403 
Q 2872 2403 3119 2622 
Q 3366 2841 3366 3238 
Q 3366 3525 3220 3729 
Q 3075 3934 2838 4000 
Q 2684 4041 2272 4041 
L 1100 4041 
L 1100 2403 
z
" transform="scale(0.015625)"/>
       <path id="ArialMT-6c" d="M 409 0 
L 409 4581 
L 972 4581 
L 972 0 
L 409 0 
z
" transform="scale(0.015625)"/>
       <path id="ArialMT-61" d="M 2588 409 
Q 2275 144 1986 34 
Q 1697 -75 1366 -75 
Q 819 -75 525 192 
Q 231 459 231 875 
Q 231 1119 342 1320 
Q 453 1522 633 1644 
Q 813 1766 1038 1828 
Q 1203 1872 1538 1913 
Q 2219 1994 2541 2106 
Q 2544 2222 2544 2253 
Q 2544 2597 2384 2738 
Q 2169 2928 1744 2928 
Q 1347 2928 1158 2789 
Q 969 2650 878 2297 
L 328 2372 
Q 403 2725 575 2942 
Q 747 3159 1072 3276 
Q 1397 3394 1825 3394 
Q 2250 3394 2515 3294 
Q 2781 3194 2906 3042 
Q 3031 2891 3081 2659 
Q 3109 2516 3109 2141 
L 3109 1391 
Q 3109 606 3145 398 
Q 3181 191 3288 0 
L 2700 0 
Q 2613 175 2588 409 
z
M 2541 1666 
Q 2234 1541 1622 1453 
Q 1275 1403 1131 1340 
Q 988 1278 909 1158 
Q 831 1038 831 891 
Q 831 666 1001 516 
Q 1172 366 1500 366 
Q 1825 366 2078 508 
Q 2331 650 2450 897 
Q 2541 1088 2541 1459 
L 2541 1666 
z
" transform="scale(0.015625)"/>
       <path id="ArialMT-79" d="M 397 -1278 
L 334 -750 
Q 519 -800 656 -800 
Q 844 -800 956 -737 
Q 1069 -675 1141 -563 
Q 1194 -478 1313 -144 
Q 1328 -97 1363 -6 
L 103 3319 
L 709 3319 
L 1400 1397 
Q 1534 1031 1641 628 
Q 1738 1016 1872 1384 
L 2581 3319 
L 3144 3319 
L 1881 -56 
Q 1678 -603 1566 -809 
Q 1416 -1088 1222 -1217 
Q 1028 -1347 759 -1347 
Q 597 -1347 397 -1278 
z
" transform="scale(0.015625)"/>
       <path id="ArialMT-72" d="M 416 0 
L 416 3319 
L 922 3319 
L 922 2816 
Q 1116 3169 1280 3281 
Q 1444 3394 1641 3394 
Q 1925 3394 2219 3213 
L 2025 2691 
Q 1819 2813 1613 2813 
Q 1428 2813 1281 2702 
Q 1134 2591 1072 2394 
Q 978 2094 978 1738 
L 978 0 
L 416 0 
z
" transform="scale(0.015625)"/>
       <path id="ArialMT-65" d="M 2694 1069 
L 3275 997 
Q 3138 488 2766 206 
Q 2394 -75 1816 -75 
Q 1088 -75 661 373 
Q 234 822 234 1631 
Q 234 2469 665 2931 
Q 1097 3394 1784 3394 
Q 2450 3394 2872 2941 
Q 3294 2488 3294 1666 
Q 3294 1616 3291 1516 
L 816 1516 
Q 847 969 1125 678 
Q 1403 388 1819 388 
Q 2128 388 2347 550 
Q 2566 713 2694 1069 
z
M 847 1978 
L 2700 1978 
Q 2663 2397 2488 2606 
Q 2219 2931 1791 2931 
Q 1403 2931 1139 2672 
Q 875 2413 847 1978 
z
" transform="scale(0.015625)"/>
       <path id="ArialMT-20" transform="scale(0.015625)"/>
       <path id="ArialMT-6f" d="M 213 1659 
Q 213 2581 725 3025 
Q 1153 3394 1769 3394 
Q 2453 3394 2887 2945 
Q 3322 2497 3322 1706 
Q 3322 1066 3130 698 
Q 2938 331 2570 128 
Q 2203 -75 1769 -75 
Q 1072 -75 642 372 
Q 213 819 213 1659 
z
M 791 1659 
Q 791 1022 1069 705 
Q 1347 388 1769 388 
Q 2188 388 2466 706 
Q 2744 1025 2744 1678 
Q 2744 2294 2464 2611 
Q 2184 2928 1769 2928 
Q 1347 2928 1069 2612 
Q 791 2297 791 1659 
z
" transform="scale(0.015625)"/>
       <path id="ArialMT-66" d="M 556 0 
L 556 2881 
L 59 2881 
L 59 3319 
L 556 3319 
L 556 3672 
Q 556 4006 616 4169 
Q 697 4388 901 4523 
Q 1106 4659 1475 4659 
Q 1713 4659 2000 4603 
L 1916 4113 
Q 1741 4144 1584 4144 
Q 1328 4144 1222 4034 
Q 1116 3925 1116 3625 
L 1116 3319 
L 1763 3319 
L 1763 2881 
L 1116 2881 
L 1116 0 
L 556 0 
z
" transform="scale(0.015625)"/>
       <path id="ArialMT-70" d="M 422 -1272 
L 422 3319 
L 934 3319 
L 934 2888 
Q 1116 3141 1344 3267 
Q 1572 3394 1897 3394 
Q 2322 3394 2647 3175 
Q 2972 2956 3137 2557 
Q 3303 2159 3303 1684 
Q 3303 1175 3120 767 
Q 2938 359 2589 142 
Q 2241 -75 1856 -75 
Q 1575 -75 1351 44 
Q 1128 163 984 344 
L 984 -1272 
L 422 -1272 
z
M 931 1641 
Q 931 1000 1190 694 
Q 1450 388 1819 388 
Q 2194 388 2461 705 
Q 2728 1022 2728 1688 
Q 2728 2322 2467 2637 
Q 2206 2953 1844 2953 
Q 1484 2953 1207 2617 
Q 931 2281 931 1641 
z
" transform="scale(0.015625)"/>
       <path id="ArialMT-67" d="M 319 -275 
L 866 -356 
Q 900 -609 1056 -725 
Q 1266 -881 1628 -881 
Q 2019 -881 2231 -725 
Q 2444 -569 2519 -288 
Q 2563 -116 2559 434 
Q 2191 0 1641 0 
Q 956 0 581 494 
Q 206 988 206 1678 
Q 206 2153 378 2554 
Q 550 2956 876 3175 
Q 1203 3394 1644 3394 
Q 2231 3394 2613 2919 
L 2613 3319 
L 3131 3319 
L 3131 450 
Q 3131 -325 2973 -648 
Q 2816 -972 2473 -1159 
Q 2131 -1347 1631 -1347 
Q 1038 -1347 672 -1080 
Q 306 -813 319 -275 
z
M 784 1719 
Q 784 1066 1043 766 
Q 1303 466 1694 466 
Q 2081 466 2343 764 
Q 2606 1063 2606 1700 
Q 2606 2309 2336 2618 
Q 2066 2928 1684 2928 
Q 1309 2928 1046 2623 
Q 784 2319 784 1719 
z
" transform="scale(0.015625)"/>
       <path id="ArialMT-75" d="M 2597 0 
L 2597 488 
Q 2209 -75 1544 -75 
Q 1250 -75 995 37 
Q 741 150 617 320 
Q 494 491 444 738 
Q 409 903 409 1263 
L 409 3319 
L 972 3319 
L 972 1478 
Q 972 1038 1006 884 
Q 1059 663 1231 536 
Q 1403 409 1656 409 
Q 1909 409 2131 539 
Q 2353 669 2445 892 
Q 2538 1116 2538 1541 
L 2538 3319 
L 3100 3319 
L 3100 0 
L 2597 0 
z
" transform="scale(0.015625)"/>
       <path id="ArialMT-6e" d="M 422 0 
L 422 3319 
L 928 3319 
L 928 2847 
Q 1294 3394 1984 3394 
Q 2284 3394 2536 3286 
Q 2788 3178 2913 3003 
Q 3038 2828 3088 2588 
Q 3119 2431 3119 2041 
L 3119 0 
L 2556 0 
L 2556 2019 
Q 2556 2363 2490 2533 
Q 2425 2703 2258 2804 
Q 2091 2906 1866 2906 
Q 1506 2906 1245 2678 
Q 984 2450 984 1813 
L 984 0 
L 422 0 
z
" transform="scale(0.015625)"/>
       <path id="ArialMT-64" d="M 2575 0 
L 2575 419 
Q 2259 -75 1647 -75 
Q 1250 -75 917 144 
Q 584 363 401 755 
Q 219 1147 219 1656 
Q 219 2153 384 2558 
Q 550 2963 881 3178 
Q 1213 3394 1622 3394 
Q 1922 3394 2156 3267 
Q 2391 3141 2538 2938 
L 2538 4581 
L 3097 4581 
L 3097 0 
L 2575 0 
z
M 797 1656 
Q 797 1019 1065 703 
Q 1334 388 1700 388 
Q 2069 388 2326 689 
Q 2584 991 2584 1609 
Q 2584 2291 2321 2609 
Q 2059 2928 1675 2928 
Q 1300 2928 1048 2622 
Q 797 2316 797 1656 
z
" transform="scale(0.015625)"/>
       <path id="ArialMT-5b" d="M 434 -1272 
L 434 4581 
L 1675 4581 
L 1675 4116 
L 997 4116 
L 997 -806 
L 1675 -806 
L 1675 -1272 
L 434 -1272 
z
" transform="scale(0.015625)"/>
       <path id="ArialMT-6d" d="M 422 0 
L 422 3319 
L 925 3319 
L 925 2853 
Q 1081 3097 1340 3245 
Q 1600 3394 1931 3394 
Q 2300 3394 2536 3241 
Q 2772 3088 2869 2813 
Q 3263 3394 3894 3394 
Q 4388 3394 4653 3120 
Q 4919 2847 4919 2278 
L 4919 0 
L 4359 0 
L 4359 2091 
Q 4359 2428 4304 2576 
Q 4250 2725 4106 2815 
Q 3963 2906 3769 2906 
Q 3419 2906 3187 2673 
Q 2956 2441 2956 1928 
L 2956 0 
L 2394 0 
L 2394 2156 
Q 2394 2531 2256 2718 
Q 2119 2906 1806 2906 
Q 1569 2906 1367 2781 
Q 1166 2656 1075 2415 
Q 984 2175 984 1722 
L 984 0 
L 422 0 
z
" transform="scale(0.015625)"/>
       <path id="ArialMT-b2" d="M 78 2291 
Q 97 2469 225 2647 
Q 422 2916 872 3242 
Q 1322 3569 1406 3663 
Q 1522 3791 1522 3925 
Q 1522 4075 1412 4172 
Q 1303 4269 1091 4269 
Q 884 4269 782 4195 
Q 681 4122 616 3913 
L 144 3963 
Q 234 4309 457 4473 
Q 681 4638 1100 4638 
Q 1572 4638 1792 4453 
Q 2013 4269 2013 4003 
Q 2013 3741 1828 3506 
Q 1688 3331 1188 2972 
Q 928 2781 819 2669 
L 2025 2669 
L 2025 2291 
L 78 2291 
z
" transform="scale(0.015625)"/>
       <path id="ArialMT-5d" d="M 1363 -1272 
L 122 -1272 
L 122 -806 
L 800 -806 
L 800 4116 
L 122 4116 
L 122 4581 
L 1363 4581 
L 1363 -1272 
z
" transform="scale(0.015625)"/>
      </defs>
      <use xlink:href="#ArialMT-50"/>
      <use xlink:href="#ArialMT-6c" x="66.699219"/>
      <use xlink:href="#ArialMT-61" x="88.916016"/>
      <use xlink:href="#ArialMT-79" x="144.53125"/>
      <use xlink:href="#ArialMT-61" x="194.53125"/>
      <use xlink:href="#ArialMT-72" x="250.146484"/>
      <use xlink:href="#ArialMT-65" x="283.447266"/>
      <use xlink:href="#ArialMT-61" x="339.0625"/>
      <use xlink:href="#ArialMT-20" x="394.677734"/>
      <use xlink:href="#ArialMT-6f" x="422.460938"/>
      <use xlink:href="#ArialMT-66" x="478.076172"/>
      <use xlink:href="#ArialMT-20" x="505.859375"/>
      <use xlink:href="#ArialMT-70" x="533.642578"/>
      <use xlink:href="#ArialMT-6c" x="589.257812"/>
      <use xlink:href="#ArialMT-61" x="611.474609"/>
      <use xlink:href="#ArialMT-79" x="667.089844"/>
      <use xlink:href="#ArialMT-67" x="717.089844"/>
      <use xlink:href="#ArialMT-72" x="772.705078"/>
      <use xlink:href="#ArialMT-6f" x="806.005859"/>
      <use xlink:href="#ArialMT-75" x="861.621094"/>
      <use xlink:href="#ArialMT-6e" x="917.236328"/>
      <use xlink:href="#ArialMT-64" x="972.851562"/>
      <use xlink:href="#ArialMT-20" x="1028.466797"/>
      <use xlink:href="#ArialMT-5b" x="1056.25"/>
      <use xlink:href="#ArialMT-6d" x="1084.033203"/>
      <use xlink:href="#ArialMT-b2" x="1167.333984"/>
      <use xlink:href="#ArialMT-5d" x="1200.634766"/>
     </g>
    </g>
   </g>
   <g id="matplotlib.axis_2">
    <g id="ytick_1">
     <g id="line2d_9">
      <path d="M 50.312344 594.18 
L 845.327344 594.18 
" clip-path="url(#pe771c48af5)" style="fill: none; stroke: #ffffff; stroke-linecap: round"/>
     </g>
     <g id="text_10">
      <!-- 0 -->
      <g style="fill: #262626" transform="translate(34.695312 598.116797) scale(0.11 -0.11)">
       <use xlink:href="#ArialMT-30"/>
      </g>
     </g>
    </g>
    <g id="ytick_2">
     <g id="line2d_10">
      <path d="M 50.312344 481.935477 
L 845.327344 481.935477 
" clip-path="url(#pe771c48af5)" style="fill: none; stroke: #ffffff; stroke-linecap: round"/>
     </g>
     <g id="text_11">
      <!-- 50 -->
      <g style="fill: #262626" transform="translate(28.578281 485.872274) scale(0.11 -0.11)">
       <use xlink:href="#ArialMT-35"/>
       <use xlink:href="#ArialMT-30" x="55.615234"/>
      </g>
     </g>
    </g>
    <g id="ytick_3">
     <g id="line2d_11">
      <path d="M 50.312344 369.690954 
L 845.327344 369.690954 
" clip-path="url(#pe771c48af5)" style="fill: none; stroke: #ffffff; stroke-linecap: round"/>
     </g>
     <g id="text_12">
      <!-- 100 -->
      <g style="fill: #262626" transform="translate(22.46125 373.627751) scale(0.11 -0.11)">
       <use xlink:href="#ArialMT-31"/>
       <use xlink:href="#ArialMT-30" x="55.615234"/>
       <use xlink:href="#ArialMT-30" x="111.230469"/>
      </g>
     </g>
    </g>
    <g id="ytick_4">
     <g id="line2d_12">
      <path d="M 50.312344 257.446432 
L 845.327344 257.446432 
" clip-path="url(#pe771c48af5)" style="fill: none; stroke: #ffffff; stroke-linecap: round"/>
     </g>
     <g id="text_13">
      <!-- 150 -->
      <g style="fill: #262626" transform="translate(22.46125 261.383228) scale(0.11 -0.11)">
       <use xlink:href="#ArialMT-31"/>
       <use xlink:href="#ArialMT-35" x="55.615234"/>
       <use xlink:href="#ArialMT-30" x="111.230469"/>
      </g>
     </g>
    </g>
    <g id="ytick_5">
     <g id="line2d_13">
      <path d="M 50.312344 145.201909 
L 845.327344 145.201909 
" clip-path="url(#pe771c48af5)" style="fill: none; stroke: #ffffff; stroke-linecap: round"/>
     </g>
     <g id="text_14">
      <!-- 200 -->
      <g style="fill: #262626" transform="translate(22.46125 149.138706) scale(0.11 -0.11)">
       <use xlink:href="#ArialMT-32"/>
       <use xlink:href="#ArialMT-30" x="55.615234"/>
       <use xlink:href="#ArialMT-30" x="111.230469"/>
      </g>
     </g>
    </g>
    <g id="text_15">
     <!-- Number of playgrounds -->
     <g style="fill: #262626" transform="translate(15.935625 376.043437) rotate(-90) scale(0.12 -0.12)">
      <defs>
       <path id="ArialMT-4e" d="M 488 0 
L 488 4581 
L 1109 4581 
L 3516 984 
L 3516 4581 
L 4097 4581 
L 4097 0 
L 3475 0 
L 1069 3600 
L 1069 0 
L 488 0 
z
" transform="scale(0.015625)"/>
       <path id="ArialMT-62" d="M 941 0 
L 419 0 
L 419 4581 
L 981 4581 
L 981 2947 
Q 1338 3394 1891 3394 
Q 2197 3394 2470 3270 
Q 2744 3147 2920 2923 
Q 3097 2700 3197 2384 
Q 3297 2069 3297 1709 
Q 3297 856 2875 390 
Q 2453 -75 1863 -75 
Q 1275 -75 941 416 
L 941 0 
z
M 934 1684 
Q 934 1088 1097 822 
Q 1363 388 1816 388 
Q 2184 388 2453 708 
Q 2722 1028 2722 1663 
Q 2722 2313 2464 2622 
Q 2206 2931 1841 2931 
Q 1472 2931 1203 2611 
Q 934 2291 934 1684 
z
" transform="scale(0.015625)"/>
       <path id="ArialMT-73" d="M 197 991 
L 753 1078 
Q 800 744 1014 566 
Q 1228 388 1613 388 
Q 2000 388 2187 545 
Q 2375 703 2375 916 
Q 2375 1106 2209 1216 
Q 2094 1291 1634 1406 
Q 1016 1563 777 1677 
Q 538 1791 414 1992 
Q 291 2194 291 2438 
Q 291 2659 392 2848 
Q 494 3038 669 3163 
Q 800 3259 1026 3326 
Q 1253 3394 1513 3394 
Q 1903 3394 2198 3281 
Q 2494 3169 2634 2976 
Q 2775 2784 2828 2463 
L 2278 2388 
Q 2241 2644 2061 2787 
Q 1881 2931 1553 2931 
Q 1166 2931 1000 2803 
Q 834 2675 834 2503 
Q 834 2394 903 2306 
Q 972 2216 1119 2156 
Q 1203 2125 1616 2013 
Q 2213 1853 2448 1751 
Q 2684 1650 2818 1456 
Q 2953 1263 2953 975 
Q 2953 694 2789 445 
Q 2625 197 2315 61 
Q 2006 -75 1616 -75 
Q 969 -75 630 194 
Q 291 463 197 991 
z
" transform="scale(0.015625)"/>
      </defs>
      <use xlink:href="#ArialMT-4e"/>
      <use xlink:href="#ArialMT-75" x="72.216797"/>
      <use xlink:href="#ArialMT-6d" x="127.832031"/>
      <use xlink:href="#ArialMT-62" x="211.132812"/>
      <use xlink:href="#ArialMT-65" x="266.748047"/>
      <use xlink:href="#ArialMT-72" x="322.363281"/>
      <use xlink:href="#ArialMT-20" x="355.664062"/>
      <use xlink:href="#ArialMT-6f" x="383.447266"/>
      <use xlink:href="#ArialMT-66" x="439.0625"/>
      <use xlink:href="#ArialMT-20" x="466.845703"/>
      <use xlink:href="#ArialMT-70" x="494.628906"/>
      <use xlink:href="#ArialMT-6c" x="550.244141"/>
      <use xlink:href="#ArialMT-61" x="572.460938"/>
      <use xlink:href="#ArialMT-79" x="628.076172"/>
      <use xlink:href="#ArialMT-67" x="678.076172"/>
      <use xlink:href="#ArialMT-72" x="733.691406"/>
      <use xlink:href="#ArialMT-6f" x="766.992188"/>
      <use xlink:href="#ArialMT-75" x="822.607422"/>
      <use xlink:href="#ArialMT-6e" x="878.222656"/>
      <use xlink:href="#ArialMT-64" x="933.837891"/>
      <use xlink:href="#ArialMT-73" x="989.453125"/>
     </g>
    </g>
   </g>
   <g id="patch_3">
    <path d="M 86.449389 594.18 
L 93.97794 594.18 
L 93.97794 362.956283 
L 86.449389 362.956283 
z
" clip-path="url(#pe771c48af5)" style="fill: #4c72b0; fill-opacity: 0.75; stroke: #ffffff; stroke-width: 0.285634; stroke-linejoin: miter"/>
   </g>
   <g id="patch_4">
    <path d="M 93.97794 594.18 
L 101.506491 594.18 
L 101.506491 192.344608 
L 93.97794 192.344608 
z
" clip-path="url(#pe771c48af5)" style="fill: #4c72b0; fill-opacity: 0.75; stroke: #ffffff; stroke-width: 0.285634; stroke-linejoin: miter"/>
   </g>
   <g id="patch_5">
    <path d="M 101.506491 594.18 
L 109.035043 594.18 
L 109.035043 120.508114 
L 101.506491 120.508114 
z
" clip-path="url(#pe771c48af5)" style="fill: #4c72b0; fill-opacity: 0.75; stroke: #ffffff; stroke-width: 0.285634; stroke-linejoin: miter"/>
   </g>
   <g id="patch_6">
    <path d="M 109.035043 594.18 
L 116.563594 594.18 
L 116.563594 59.896071 
L 109.035043 59.896071 
z
" clip-path="url(#pe771c48af5)" style="fill: #4c72b0; fill-opacity: 0.75; stroke: #ffffff; stroke-width: 0.285634; stroke-linejoin: miter"/>
   </g>
   <g id="patch_7">
    <path d="M 116.563594 594.18 
L 124.092145 594.18 
L 124.092145 187.854827 
L 116.563594 187.854827 
z
" clip-path="url(#pe771c48af5)" style="fill: #4c72b0; fill-opacity: 0.75; stroke: #ffffff; stroke-width: 0.285634; stroke-linejoin: miter"/>
   </g>
   <g id="patch_8">
    <path d="M 124.092145 594.18 
L 131.620696 594.18 
L 131.620696 277.650446 
L 124.092145 277.650446 
z
" clip-path="url(#pe771c48af5)" style="fill: #4c72b0; fill-opacity: 0.75; stroke: #ffffff; stroke-width: 0.285634; stroke-linejoin: miter"/>
   </g>
   <g id="patch_9">
    <path d="M 131.620696 594.18 
L 139.149247 594.18 
L 139.149247 342.752269 
L 131.620696 342.752269 
z
" clip-path="url(#pe771c48af5)" style="fill: #4c72b0; fill-opacity: 0.75; stroke: #ffffff; stroke-width: 0.285634; stroke-linejoin: miter"/>
   </g>
   <g id="patch_10">
    <path d="M 139.149247 594.18 
L 146.677798 594.18 
L 146.677798 349.48694 
L 139.149247 349.48694 
z
" clip-path="url(#pe771c48af5)" style="fill: #4c72b0; fill-opacity: 0.75; stroke: #ffffff; stroke-width: 0.285634; stroke-linejoin: miter"/>
   </g>
   <g id="patch_11">
    <path d="M 146.677798 594.18 
L 154.206349 594.18 
L 154.206349 423.568325 
L 146.677798 423.568325 
z
" clip-path="url(#pe771c48af5)" style="fill: #4c72b0; fill-opacity: 0.75; stroke: #ffffff; stroke-width: 0.285634; stroke-linejoin: miter"/>
   </g>
   <g id="patch_12">
    <path d="M 154.206349 594.18 
L 161.734901 594.18 
L 161.734901 454.996792 
L 154.206349 454.996792 
z
" clip-path="url(#pe771c48af5)" style="fill: #4c72b0; fill-opacity: 0.75; stroke: #ffffff; stroke-width: 0.285634; stroke-linejoin: miter"/>
   </g>
   <g id="patch_13">
    <path d="M 161.734901 594.18 
L 169.263452 594.18 
L 169.263452 457.241682 
L 161.734901 457.241682 
z
" clip-path="url(#pe771c48af5)" style="fill: #4c72b0; fill-opacity: 0.75; stroke: #ffffff; stroke-width: 0.285634; stroke-linejoin: miter"/>
   </g>
   <g id="patch_14">
    <path d="M 169.263452 594.18 
L 176.792003 594.18 
L 176.792003 484.180368 
L 169.263452 484.180368 
z
" clip-path="url(#pe771c48af5)" style="fill: #4c72b0; fill-opacity: 0.75; stroke: #ffffff; stroke-width: 0.285634; stroke-linejoin: miter"/>
   </g>
   <g id="patch_15">
    <path d="M 176.792003 594.18 
L 184.320554 594.18 
L 184.320554 511.119053 
L 176.792003 511.119053 
z
" clip-path="url(#pe771c48af5)" style="fill: #4c72b0; fill-opacity: 0.75; stroke: #ffffff; stroke-width: 0.285634; stroke-linejoin: miter"/>
   </g>
   <g id="patch_16">
    <path d="M 184.320554 594.18 
L 191.849105 594.18 
L 191.849105 520.098615 
L 184.320554 520.098615 
z
" clip-path="url(#pe771c48af5)" style="fill: #4c72b0; fill-opacity: 0.75; stroke: #ffffff; stroke-width: 0.285634; stroke-linejoin: miter"/>
   </g>
   <g id="patch_17">
    <path d="M 191.849105 594.18 
L 199.377656 594.18 
L 199.377656 533.567958 
L 191.849105 533.567958 
z
" clip-path="url(#pe771c48af5)" style="fill: #4c72b0; fill-opacity: 0.75; stroke: #ffffff; stroke-width: 0.285634; stroke-linejoin: miter"/>
   </g>
   <g id="patch_18">
    <path d="M 199.377656 594.18 
L 206.906207 594.18 
L 206.906207 544.79241 
L 199.377656 544.79241 
z
" clip-path="url(#pe771c48af5)" style="fill: #4c72b0; fill-opacity: 0.75; stroke: #ffffff; stroke-width: 0.285634; stroke-linejoin: miter"/>
   </g>
   <g id="patch_19">
    <path d="M 206.906207 594.18 
L 214.434759 594.18 
L 214.434759 531.323067 
L 206.906207 531.323067 
z
" clip-path="url(#pe771c48af5)" style="fill: #4c72b0; fill-opacity: 0.75; stroke: #ffffff; stroke-width: 0.285634; stroke-linejoin: miter"/>
   </g>
   <g id="patch_20">
    <path d="M 214.434759 594.18 
L 221.96331 594.18 
L 221.96331 542.54752 
L 214.434759 542.54752 
z
" clip-path="url(#pe771c48af5)" style="fill: #4c72b0; fill-opacity: 0.75; stroke: #ffffff; stroke-width: 0.285634; stroke-linejoin: miter"/>
   </g>
   <g id="patch_21">
    <path d="M 221.96331 594.18 
L 229.491861 594.18 
L 229.491861 567.241315 
L 221.96331 567.241315 
z
" clip-path="url(#pe771c48af5)" style="fill: #4c72b0; fill-opacity: 0.75; stroke: #ffffff; stroke-width: 0.285634; stroke-linejoin: miter"/>
   </g>
   <g id="patch_22">
    <path d="M 229.491861 594.18 
L 237.020412 594.18 
L 237.020412 569.486205 
L 229.491861 569.486205 
z
" clip-path="url(#pe771c48af5)" style="fill: #4c72b0; fill-opacity: 0.75; stroke: #ffffff; stroke-width: 0.285634; stroke-linejoin: miter"/>
   </g>
   <g id="patch_23">
    <path d="M 237.020412 594.18 
L 244.548963 594.18 
L 244.548963 569.486205 
L 237.020412 569.486205 
z
" clip-path="url(#pe771c48af5)" style="fill: #4c72b0; fill-opacity: 0.75; stroke: #ffffff; stroke-width: 0.285634; stroke-linejoin: miter"/>
   </g>
   <g id="patch_24">
    <path d="M 244.548963 594.18 
L 252.077514 594.18 
L 252.077514 587.445329 
L 244.548963 587.445329 
z
" clip-path="url(#pe771c48af5)" style="fill: #4c72b0; fill-opacity: 0.75; stroke: #ffffff; stroke-width: 0.285634; stroke-linejoin: miter"/>
   </g>
   <g id="patch_25">
    <path d="M 252.077514 594.18 
L 259.606065 594.18 
L 259.606065 571.731095 
L 252.077514 571.731095 
z
" clip-path="url(#pe771c48af5)" style="fill: #4c72b0; fill-opacity: 0.75; stroke: #ffffff; stroke-width: 0.285634; stroke-linejoin: miter"/>
   </g>
   <g id="patch_26">
    <path d="M 259.606065 594.18 
L 267.134616 594.18 
L 267.134616 582.955548 
L 259.606065 582.955548 
z
" clip-path="url(#pe771c48af5)" style="fill: #4c72b0; fill-opacity: 0.75; stroke: #ffffff; stroke-width: 0.285634; stroke-linejoin: miter"/>
   </g>
   <g id="patch_27">
    <path d="M 267.134616 594.18 
L 274.663168 594.18 
L 274.663168 580.710657 
L 267.134616 580.710657 
z
" clip-path="url(#pe771c48af5)" style="fill: #4c72b0; fill-opacity: 0.75; stroke: #ffffff; stroke-width: 0.285634; stroke-linejoin: miter"/>
   </g>
   <g id="patch_28">
    <path d="M 274.663168 594.18 
L 282.191719 594.18 
L 282.191719 582.955548 
L 274.663168 582.955548 
z
" clip-path="url(#pe771c48af5)" style="fill: #4c72b0; fill-opacity: 0.75; stroke: #ffffff; stroke-width: 0.285634; stroke-linejoin: miter"/>
   </g>
   <g id="patch_29">
    <path d="M 282.191719 594.18 
L 289.72027 594.18 
L 289.72027 580.710657 
L 282.191719 580.710657 
z
" clip-path="url(#pe771c48af5)" style="fill: #4c72b0; fill-opacity: 0.75; stroke: #ffffff; stroke-width: 0.285634; stroke-linejoin: miter"/>
   </g>
   <g id="patch_30">
    <path d="M 289.72027 594.18 
L 297.248821 594.18 
L 297.248821 585.200438 
L 289.72027 585.200438 
z
" clip-path="url(#pe771c48af5)" style="fill: #4c72b0; fill-opacity: 0.75; stroke: #ffffff; stroke-width: 0.285634; stroke-linejoin: miter"/>
   </g>
   <g id="patch_31">
    <path d="M 297.248821 594.18 
L 304.777372 594.18 
L 304.777372 587.445329 
L 297.248821 587.445329 
z
" clip-path="url(#pe771c48af5)" style="fill: #4c72b0; fill-opacity: 0.75; stroke: #ffffff; stroke-width: 0.285634; stroke-linejoin: miter"/>
   </g>
   <g id="patch_32">
    <path d="M 304.777372 594.18 
L 312.305923 594.18 
L 312.305923 589.690219 
L 304.777372 589.690219 
z
" clip-path="url(#pe771c48af5)" style="fill: #4c72b0; fill-opacity: 0.75; stroke: #ffffff; stroke-width: 0.285634; stroke-linejoin: miter"/>
   </g>
   <g id="patch_33">
    <path d="M 312.305923 594.18 
L 319.834474 594.18 
L 319.834474 587.445329 
L 312.305923 587.445329 
z
" clip-path="url(#pe771c48af5)" style="fill: #4c72b0; fill-opacity: 0.75; stroke: #ffffff; stroke-width: 0.285634; stroke-linejoin: miter"/>
   </g>
   <g id="patch_34">
    <path d="M 319.834474 594.18 
L 327.363026 594.18 
L 327.363026 587.445329 
L 319.834474 587.445329 
z
" clip-path="url(#pe771c48af5)" style="fill: #4c72b0; fill-opacity: 0.75; stroke: #ffffff; stroke-width: 0.285634; stroke-linejoin: miter"/>
   </g>
   <g id="patch_35">
    <path d="M 327.363026 594.18 
L 334.891577 594.18 
L 334.891577 589.690219 
L 327.363026 589.690219 
z
" clip-path="url(#pe771c48af5)" style="fill: #4c72b0; fill-opacity: 0.75; stroke: #ffffff; stroke-width: 0.285634; stroke-linejoin: miter"/>
   </g>
   <g id="patch_36">
    <path d="M 334.891577 594.18 
L 342.420128 594.18 
L 342.420128 589.690219 
L 334.891577 589.690219 
z
" clip-path="url(#pe771c48af5)" style="fill: #4c72b0; fill-opacity: 0.75; stroke: #ffffff; stroke-width: 0.285634; stroke-linejoin: miter"/>
   </g>
   <g id="patch_37">
    <path d="M 342.420128 594.18 
L 349.948679 594.18 
L 349.948679 589.690219 
L 342.420128 589.690219 
z
" clip-path="url(#pe771c48af5)" style="fill: #4c72b0; fill-opacity: 0.75; stroke: #ffffff; stroke-width: 0.285634; stroke-linejoin: miter"/>
   </g>
   <g id="patch_38">
    <path d="M 349.948679 594.18 
L 357.47723 594.18 
L 357.47723 591.93511 
L 349.948679 591.93511 
z
" clip-path="url(#pe771c48af5)" style="fill: #4c72b0; fill-opacity: 0.75; stroke: #ffffff; stroke-width: 0.285634; stroke-linejoin: miter"/>
   </g>
   <g id="patch_39">
    <path d="M 357.47723 594.18 
L 365.005781 594.18 
L 365.005781 591.93511 
L 357.47723 591.93511 
z
" clip-path="url(#pe771c48af5)" style="fill: #4c72b0; fill-opacity: 0.75; stroke: #ffffff; stroke-width: 0.285634; stroke-linejoin: miter"/>
   </g>
   <g id="patch_40">
    <path d="M 365.005781 594.18 
L 372.534332 594.18 
L 372.534332 591.93511 
L 365.005781 591.93511 
z
" clip-path="url(#pe771c48af5)" style="fill: #4c72b0; fill-opacity: 0.75; stroke: #ffffff; stroke-width: 0.285634; stroke-linejoin: miter"/>
   </g>
   <g id="patch_41">
    <path d="M 372.534332 594.18 
L 380.062884 594.18 
L 380.062884 594.18 
L 372.534332 594.18 
z
" clip-path="url(#pe771c48af5)" style="fill: #4c72b0; fill-opacity: 0.75; stroke: #ffffff; stroke-width: 0.285634; stroke-linejoin: miter"/>
   </g>
   <g id="patch_42">
    <path d="M 380.062884 594.18 
L 387.591435 594.18 
L 387.591435 589.690219 
L 380.062884 589.690219 
z
" clip-path="url(#pe771c48af5)" style="fill: #4c72b0; fill-opacity: 0.75; stroke: #ffffff; stroke-width: 0.285634; stroke-linejoin: miter"/>
   </g>
   <g id="patch_43">
    <path d="M 387.591435 594.18 
L 395.119986 594.18 
L 395.119986 591.93511 
L 387.591435 591.93511 
z
" clip-path="url(#pe771c48af5)" style="fill: #4c72b0; fill-opacity: 0.75; stroke: #ffffff; stroke-width: 0.285634; stroke-linejoin: miter"/>
   </g>
   <g id="patch_44">
    <path d="M 395.119986 594.18 
L 402.648537 594.18 
L 402.648537 594.18 
L 395.119986 594.18 
z
" clip-path="url(#pe771c48af5)" style="fill: #4c72b0; fill-opacity: 0.75; stroke: #ffffff; stroke-width: 0.285634; stroke-linejoin: miter"/>
   </g>
   <g id="patch_45">
    <path d="M 402.648537 594.18 
L 410.177088 594.18 
L 410.177088 589.690219 
L 402.648537 589.690219 
z
" clip-path="url(#pe771c48af5)" style="fill: #4c72b0; fill-opacity: 0.75; stroke: #ffffff; stroke-width: 0.285634; stroke-linejoin: miter"/>
   </g>
   <g id="patch_46">
    <path d="M 410.177088 594.18 
L 417.705639 594.18 
L 417.705639 594.18 
L 410.177088 594.18 
z
" clip-path="url(#pe771c48af5)" style="fill: #4c72b0; fill-opacity: 0.75; stroke: #ffffff; stroke-width: 0.285634; stroke-linejoin: miter"/>
   </g>
   <g id="patch_47">
    <path d="M 417.705639 594.18 
L 425.23419 594.18 
L 425.23419 591.93511 
L 417.705639 591.93511 
z
" clip-path="url(#pe771c48af5)" style="fill: #4c72b0; fill-opacity: 0.75; stroke: #ffffff; stroke-width: 0.285634; stroke-linejoin: miter"/>
   </g>
   <g id="patch_48">
    <path d="M 425.23419 594.18 
L 432.762741 594.18 
L 432.762741 594.18 
L 425.23419 594.18 
z
" clip-path="url(#pe771c48af5)" style="fill: #4c72b0; fill-opacity: 0.75; stroke: #ffffff; stroke-width: 0.285634; stroke-linejoin: miter"/>
   </g>
   <g id="patch_49">
    <path d="M 432.762741 594.18 
L 440.291293 594.18 
L 440.291293 594.18 
L 432.762741 594.18 
z
" clip-path="url(#pe771c48af5)" style="fill: #4c72b0; fill-opacity: 0.75; stroke: #ffffff; stroke-width: 0.285634; stroke-linejoin: miter"/>
   </g>
   <g id="patch_50">
    <path d="M 440.291293 594.18 
L 447.819844 594.18 
L 447.819844 594.18 
L 440.291293 594.18 
z
" clip-path="url(#pe771c48af5)" style="fill: #4c72b0; fill-opacity: 0.75; stroke: #ffffff; stroke-width: 0.285634; stroke-linejoin: miter"/>
   </g>
   <g id="patch_51">
    <path d="M 447.819844 594.18 
L 455.348395 594.18 
L 455.348395 591.93511 
L 447.819844 591.93511 
z
" clip-path="url(#pe771c48af5)" style="fill: #4c72b0; fill-opacity: 0.75; stroke: #ffffff; stroke-width: 0.285634; stroke-linejoin: miter"/>
   </g>
   <g id="patch_52">
    <path d="M 455.348395 594.18 
L 462.876946 594.18 
L 462.876946 594.18 
L 455.348395 594.18 
z
" clip-path="url(#pe771c48af5)" style="fill: #4c72b0; fill-opacity: 0.75; stroke: #ffffff; stroke-width: 0.285634; stroke-linejoin: miter"/>
   </g>
   <g id="patch_53">
    <path d="M 462.876946 594.18 
L 470.405497 594.18 
L 470.405497 594.18 
L 462.876946 594.18 
z
" clip-path="url(#pe771c48af5)" style="fill: #4c72b0; fill-opacity: 0.75; stroke: #ffffff; stroke-width: 0.285634; stroke-linejoin: miter"/>
   </g>
   <g id="patch_54">
    <path d="M 470.405497 594.18 
L 477.934048 594.18 
L 477.934048 591.93511 
L 470.405497 591.93511 
z
" clip-path="url(#pe771c48af5)" style="fill: #4c72b0; fill-opacity: 0.75; stroke: #ffffff; stroke-width: 0.285634; stroke-linejoin: miter"/>
   </g>
   <g id="patch_55">
    <path d="M 477.934048 594.18 
L 485.462599 594.18 
L 485.462599 594.18 
L 477.934048 594.18 
z
" clip-path="url(#pe771c48af5)" style="fill: #4c72b0; fill-opacity: 0.75; stroke: #ffffff; stroke-width: 0.285634; stroke-linejoin: miter"/>
   </g>
   <g id="patch_56">
    <path d="M 485.462599 594.18 
L 492.991151 594.18 
L 492.991151 591.93511 
L 485.462599 591.93511 
z
" clip-path="url(#pe771c48af5)" style="fill: #4c72b0; fill-opacity: 0.75; stroke: #ffffff; stroke-width: 0.285634; stroke-linejoin: miter"/>
   </g>
   <g id="patch_57">
    <path d="M 492.991151 594.18 
L 500.519702 594.18 
L 500.519702 594.18 
L 492.991151 594.18 
z
" clip-path="url(#pe771c48af5)" style="fill: #4c72b0; fill-opacity: 0.75; stroke: #ffffff; stroke-width: 0.285634; stroke-linejoin: miter"/>
   </g>
   <g id="patch_58">
    <path d="M 500.519702 594.18 
L 508.048253 594.18 
L 508.048253 594.18 
L 500.519702 594.18 
z
" clip-path="url(#pe771c48af5)" style="fill: #4c72b0; fill-opacity: 0.75; stroke: #ffffff; stroke-width: 0.285634; stroke-linejoin: miter"/>
   </g>
   <g id="patch_59">
    <path d="M 508.048253 594.18 
L 515.576804 594.18 
L 515.576804 594.18 
L 508.048253 594.18 
z
" clip-path="url(#pe771c48af5)" style="fill: #4c72b0; fill-opacity: 0.75; stroke: #ffffff; stroke-width: 0.285634; stroke-linejoin: miter"/>
   </g>
   <g id="patch_60">
    <path d="M 515.576804 594.18 
L 523.105355 594.18 
L 523.105355 591.93511 
L 515.576804 591.93511 
z
" clip-path="url(#pe771c48af5)" style="fill: #4c72b0; fill-opacity: 0.75; stroke: #ffffff; stroke-width: 0.285634; stroke-linejoin: miter"/>
   </g>
   <g id="patch_61">
    <path d="M 523.105355 594.18 
L 530.633906 594.18 
L 530.633906 594.18 
L 523.105355 594.18 
z
" clip-path="url(#pe771c48af5)" style="fill: #4c72b0; fill-opacity: 0.75; stroke: #ffffff; stroke-width: 0.285634; stroke-linejoin: miter"/>
   </g>
   <g id="patch_62">
    <path d="M 530.633906 594.18 
L 538.162457 594.18 
L 538.162457 594.18 
L 530.633906 594.18 
z
" clip-path="url(#pe771c48af5)" style="fill: #4c72b0; fill-opacity: 0.75; stroke: #ffffff; stroke-width: 0.285634; stroke-linejoin: miter"/>
   </g>
   <g id="patch_63">
    <path d="M 538.162457 594.18 
L 545.691009 594.18 
L 545.691009 594.18 
L 538.162457 594.18 
z
" clip-path="url(#pe771c48af5)" style="fill: #4c72b0; fill-opacity: 0.75; stroke: #ffffff; stroke-width: 0.285634; stroke-linejoin: miter"/>
   </g>
   <g id="patch_64">
    <path d="M 545.691009 594.18 
L 553.21956 594.18 
L 553.21956 594.18 
L 545.691009 594.18 
z
" clip-path="url(#pe771c48af5)" style="fill: #4c72b0; fill-opacity: 0.75; stroke: #ffffff; stroke-width: 0.285634; stroke-linejoin: miter"/>
   </g>
   <g id="patch_65">
    <path d="M 553.21956 594.18 
L 560.748111 594.18 
L 560.748111 594.18 
L 553.21956 594.18 
z
" clip-path="url(#pe771c48af5)" style="fill: #4c72b0; fill-opacity: 0.75; stroke: #ffffff; stroke-width: 0.285634; stroke-linejoin: miter"/>
   </g>
   <g id="patch_66">
    <path d="M 560.748111 594.18 
L 568.276662 594.18 
L 568.276662 594.18 
L 560.748111 594.18 
z
" clip-path="url(#pe771c48af5)" style="fill: #4c72b0; fill-opacity: 0.75; stroke: #ffffff; stroke-width: 0.285634; stroke-linejoin: miter"/>
   </g>
   <g id="patch_67">
    <path d="M 568.276662 594.18 
L 575.805213 594.18 
L 575.805213 594.18 
L 568.276662 594.18 
z
" clip-path="url(#pe771c48af5)" style="fill: #4c72b0; fill-opacity: 0.75; stroke: #ffffff; stroke-width: 0.285634; stroke-linejoin: miter"/>
   </g>
   <g id="patch_68">
    <path d="M 575.805213 594.18 
L 583.333764 594.18 
L 583.333764 594.18 
L 575.805213 594.18 
z
" clip-path="url(#pe771c48af5)" style="fill: #4c72b0; fill-opacity: 0.75; stroke: #ffffff; stroke-width: 0.285634; stroke-linejoin: miter"/>
   </g>
   <g id="patch_69">
    <path d="M 583.333764 594.18 
L 590.862315 594.18 
L 590.862315 594.18 
L 583.333764 594.18 
z
" clip-path="url(#pe771c48af5)" style="fill: #4c72b0; fill-opacity: 0.75; stroke: #ffffff; stroke-width: 0.285634; stroke-linejoin: miter"/>
   </g>
   <g id="patch_70">
    <path d="M 590.862315 594.18 
L 598.390866 594.18 
L 598.390866 594.18 
L 590.862315 594.18 
z
" clip-path="url(#pe771c48af5)" style="fill: #4c72b0; fill-opacity: 0.75; stroke: #ffffff; stroke-width: 0.285634; stroke-linejoin: miter"/>
   </g>
   <g id="patch_71">
    <path d="M 598.390866 594.18 
L 605.919418 594.18 
L 605.919418 594.18 
L 598.390866 594.18 
z
" clip-path="url(#pe771c48af5)" style="fill: #4c72b0; fill-opacity: 0.75; stroke: #ffffff; stroke-width: 0.285634; stroke-linejoin: miter"/>
   </g>
   <g id="patch_72">
    <path d="M 605.919418 594.18 
L 613.447969 594.18 
L 613.447969 594.18 
L 605.919418 594.18 
z
" clip-path="url(#pe771c48af5)" style="fill: #4c72b0; fill-opacity: 0.75; stroke: #ffffff; stroke-width: 0.285634; stroke-linejoin: miter"/>
   </g>
   <g id="patch_73">
    <path d="M 613.447969 594.18 
L 620.97652 594.18 
L 620.97652 594.18 
L 613.447969 594.18 
z
" clip-path="url(#pe771c48af5)" style="fill: #4c72b0; fill-opacity: 0.75; stroke: #ffffff; stroke-width: 0.285634; stroke-linejoin: miter"/>
   </g>
   <g id="patch_74">
    <path d="M 620.97652 594.18 
L 628.505071 594.18 
L 628.505071 594.18 
L 620.97652 594.18 
z
" clip-path="url(#pe771c48af5)" style="fill: #4c72b0; fill-opacity: 0.75; stroke: #ffffff; stroke-width: 0.285634; stroke-linejoin: miter"/>
   </g>
   <g id="patch_75">
    <path d="M 628.505071 594.18 
L 636.033622 594.18 
L 636.033622 594.18 
L 628.505071 594.18 
z
" clip-path="url(#pe771c48af5)" style="fill: #4c72b0; fill-opacity: 0.75; stroke: #ffffff; stroke-width: 0.285634; stroke-linejoin: miter"/>
   </g>
   <g id="patch_76">
    <path d="M 636.033622 594.18 
L 643.562173 594.18 
L 643.562173 594.18 
L 636.033622 594.18 
z
" clip-path="url(#pe771c48af5)" style="fill: #4c72b0; fill-opacity: 0.75; stroke: #ffffff; stroke-width: 0.285634; stroke-linejoin: miter"/>
   </g>
   <g id="patch_77">
    <path d="M 643.562173 594.18 
L 651.090724 594.18 
L 651.090724 594.18 
L 643.562173 594.18 
z
" clip-path="url(#pe771c48af5)" style="fill: #4c72b0; fill-opacity: 0.75; stroke: #ffffff; stroke-width: 0.285634; stroke-linejoin: miter"/>
   </g>
   <g id="patch_78">
    <path d="M 651.090724 594.18 
L 658.619276 594.18 
L 658.619276 594.18 
L 651.090724 594.18 
z
" clip-path="url(#pe771c48af5)" style="fill: #4c72b0; fill-opacity: 0.75; stroke: #ffffff; stroke-width: 0.285634; stroke-linejoin: miter"/>
   </g>
   <g id="patch_79">
    <path d="M 658.619276 594.18 
L 666.147827 594.18 
L 666.147827 594.18 
L 658.619276 594.18 
z
" clip-path="url(#pe771c48af5)" style="fill: #4c72b0; fill-opacity: 0.75; stroke: #ffffff; stroke-width: 0.285634; stroke-linejoin: miter"/>
   </g>
   <g id="patch_80">
    <path d="M 666.147827 594.18 
L 673.676378 594.18 
L 673.676378 594.18 
L 666.147827 594.18 
z
" clip-path="url(#pe771c48af5)" style="fill: #4c72b0; fill-opacity: 0.75; stroke: #ffffff; stroke-width: 0.285634; stroke-linejoin: miter"/>
   </g>
   <g id="patch_81">
    <path d="M 673.676378 594.18 
L 681.204929 594.18 
L 681.204929 594.18 
L 673.676378 594.18 
z
" clip-path="url(#pe771c48af5)" style="fill: #4c72b0; fill-opacity: 0.75; stroke: #ffffff; stroke-width: 0.285634; stroke-linejoin: miter"/>
   </g>
   <g id="patch_82">
    <path d="M 681.204929 594.18 
L 688.73348 594.18 
L 688.73348 594.18 
L 681.204929 594.18 
z
" clip-path="url(#pe771c48af5)" style="fill: #4c72b0; fill-opacity: 0.75; stroke: #ffffff; stroke-width: 0.285634; stroke-linejoin: miter"/>
   </g>
   <g id="patch_83">
    <path d="M 688.73348 594.18 
L 696.262031 594.18 
L 696.262031 594.18 
L 688.73348 594.18 
z
" clip-path="url(#pe771c48af5)" style="fill: #4c72b0; fill-opacity: 0.75; stroke: #ffffff; stroke-width: 0.285634; stroke-linejoin: miter"/>
   </g>
   <g id="patch_84">
    <path d="M 696.262031 594.18 
L 703.790582 594.18 
L 703.790582 594.18 
L 696.262031 594.18 
z
" clip-path="url(#pe771c48af5)" style="fill: #4c72b0; fill-opacity: 0.75; stroke: #ffffff; stroke-width: 0.285634; stroke-linejoin: miter"/>
   </g>
   <g id="patch_85">
    <path d="M 703.790582 594.18 
L 711.319134 594.18 
L 711.319134 594.18 
L 703.790582 594.18 
z
" clip-path="url(#pe771c48af5)" style="fill: #4c72b0; fill-opacity: 0.75; stroke: #ffffff; stroke-width: 0.285634; stroke-linejoin: miter"/>
   </g>
   <g id="patch_86">
    <path d="M 711.319134 594.18 
L 718.847685 594.18 
L 718.847685 594.18 
L 711.319134 594.18 
z
" clip-path="url(#pe771c48af5)" style="fill: #4c72b0; fill-opacity: 0.75; stroke: #ffffff; stroke-width: 0.285634; stroke-linejoin: miter"/>
   </g>
   <g id="patch_87">
    <path d="M 718.847685 594.18 
L 726.376236 594.18 
L 726.376236 594.18 
L 718.847685 594.18 
z
" clip-path="url(#pe771c48af5)" style="fill: #4c72b0; fill-opacity: 0.75; stroke: #ffffff; stroke-width: 0.285634; stroke-linejoin: miter"/>
   </g>
   <g id="patch_88">
    <path d="M 726.376236 594.18 
L 733.904787 594.18 
L 733.904787 594.18 
L 726.376236 594.18 
z
" clip-path="url(#pe771c48af5)" style="fill: #4c72b0; fill-opacity: 0.75; stroke: #ffffff; stroke-width: 0.285634; stroke-linejoin: miter"/>
   </g>
   <g id="patch_89">
    <path d="M 733.904787 594.18 
L 741.433338 594.18 
L 741.433338 591.93511 
L 733.904787 591.93511 
z
" clip-path="url(#pe771c48af5)" style="fill: #4c72b0; fill-opacity: 0.75; stroke: #ffffff; stroke-width: 0.285634; stroke-linejoin: miter"/>
   </g>
   <g id="patch_90">
    <path d="M 741.433338 594.18 
L 748.961889 594.18 
L 748.961889 594.18 
L 741.433338 594.18 
z
" clip-path="url(#pe771c48af5)" style="fill: #4c72b0; fill-opacity: 0.75; stroke: #ffffff; stroke-width: 0.285634; stroke-linejoin: miter"/>
   </g>
   <g id="patch_91">
    <path d="M 748.961889 594.18 
L 756.49044 594.18 
L 756.49044 594.18 
L 748.961889 594.18 
z
" clip-path="url(#pe771c48af5)" style="fill: #4c72b0; fill-opacity: 0.75; stroke: #ffffff; stroke-width: 0.285634; stroke-linejoin: miter"/>
   </g>
   <g id="patch_92">
    <path d="M 756.49044 594.18 
L 764.018991 594.18 
L 764.018991 594.18 
L 756.49044 594.18 
z
" clip-path="url(#pe771c48af5)" style="fill: #4c72b0; fill-opacity: 0.75; stroke: #ffffff; stroke-width: 0.285634; stroke-linejoin: miter"/>
   </g>
   <g id="patch_93">
    <path d="M 764.018991 594.18 
L 771.547543 594.18 
L 771.547543 594.18 
L 764.018991 594.18 
z
" clip-path="url(#pe771c48af5)" style="fill: #4c72b0; fill-opacity: 0.75; stroke: #ffffff; stroke-width: 0.285634; stroke-linejoin: miter"/>
   </g>
   <g id="patch_94">
    <path d="M 771.547543 594.18 
L 779.076094 594.18 
L 779.076094 594.18 
L 771.547543 594.18 
z
" clip-path="url(#pe771c48af5)" style="fill: #4c72b0; fill-opacity: 0.75; stroke: #ffffff; stroke-width: 0.285634; stroke-linejoin: miter"/>
   </g>
   <g id="patch_95">
    <path d="M 779.076094 594.18 
L 786.604645 594.18 
L 786.604645 594.18 
L 779.076094 594.18 
z
" clip-path="url(#pe771c48af5)" style="fill: #4c72b0; fill-opacity: 0.75; stroke: #ffffff; stroke-width: 0.285634; stroke-linejoin: miter"/>
   </g>
   <g id="patch_96">
    <path d="M 786.604645 594.18 
L 794.133196 594.18 
L 794.133196 594.18 
L 786.604645 594.18 
z
" clip-path="url(#pe771c48af5)" style="fill: #4c72b0; fill-opacity: 0.75; stroke: #ffffff; stroke-width: 0.285634; stroke-linejoin: miter"/>
   </g>
   <g id="patch_97">
    <path d="M 794.133196 594.18 
L 801.661747 594.18 
L 801.661747 594.18 
L 794.133196 594.18 
z
" clip-path="url(#pe771c48af5)" style="fill: #4c72b0; fill-opacity: 0.75; stroke: #ffffff; stroke-width: 0.285634; stroke-linejoin: miter"/>
   </g>
   <g id="patch_98">
    <path d="M 801.661747 594.18 
L 809.190298 594.18 
L 809.190298 591.93511 
L 801.661747 591.93511 
z
" clip-path="url(#pe771c48af5)" style="fill: #4c72b0; fill-opacity: 0.75; stroke: #ffffff; stroke-width: 0.285634; stroke-linejoin: miter"/>
   </g>
   <g id="patch_99">
    <path d="M 50.312344 594.18 
L 50.312344 33.181875 
" style="fill: none; stroke: #ffffff; stroke-width: 1.25; stroke-linejoin: miter; stroke-linecap: square"/>
   </g>
   <g id="patch_100">
    <path d="M 50.312344 594.18 
L 845.327344 594.18 
" style="fill: none; stroke: #ffffff; stroke-width: 1.25; stroke-linejoin: miter; stroke-linecap: square"/>
   </g>
  </g>
  <g id="text_16">
   <!-- Distribution of playarea across playgrounds -->
   <g style="fill: #262626" transform="translate(288.223969 17.68275) scale(0.144 -0.144)">
    <defs>
     <path id="ArialMT-44" d="M 494 0 
L 494 4581 
L 2072 4581 
Q 2606 4581 2888 4516 
Q 3281 4425 3559 4188 
Q 3922 3881 4101 3404 
Q 4281 2928 4281 2316 
Q 4281 1794 4159 1391 
Q 4038 988 3847 723 
Q 3656 459 3429 307 
Q 3203 156 2883 78 
Q 2563 0 2147 0 
L 494 0 
z
M 1100 541 
L 2078 541 
Q 2531 541 2789 625 
Q 3047 709 3200 863 
Q 3416 1078 3536 1442 
Q 3656 1806 3656 2325 
Q 3656 3044 3420 3430 
Q 3184 3816 2847 3947 
Q 2603 4041 2063 4041 
L 1100 4041 
L 1100 541 
z
" transform="scale(0.015625)"/>
     <path id="ArialMT-69" d="M 425 3934 
L 425 4581 
L 988 4581 
L 988 3934 
L 425 3934 
z
M 425 0 
L 425 3319 
L 988 3319 
L 988 0 
L 425 0 
z
" transform="scale(0.015625)"/>
     <path id="ArialMT-74" d="M 1650 503 
L 1731 6 
Q 1494 -44 1306 -44 
Q 1000 -44 831 53 
Q 663 150 594 308 
Q 525 466 525 972 
L 525 2881 
L 113 2881 
L 113 3319 
L 525 3319 
L 525 4141 
L 1084 4478 
L 1084 3319 
L 1650 3319 
L 1650 2881 
L 1084 2881 
L 1084 941 
Q 1084 700 1114 631 
Q 1144 563 1211 522 
Q 1278 481 1403 481 
Q 1497 481 1650 503 
z
" transform="scale(0.015625)"/>
     <path id="ArialMT-63" d="M 2588 1216 
L 3141 1144 
Q 3050 572 2676 248 
Q 2303 -75 1759 -75 
Q 1078 -75 664 370 
Q 250 816 250 1647 
Q 250 2184 428 2587 
Q 606 2991 970 3192 
Q 1334 3394 1763 3394 
Q 2303 3394 2647 3120 
Q 2991 2847 3088 2344 
L 2541 2259 
Q 2463 2594 2264 2762 
Q 2066 2931 1784 2931 
Q 1359 2931 1093 2626 
Q 828 2322 828 1663 
Q 828 994 1084 691 
Q 1341 388 1753 388 
Q 2084 388 2306 591 
Q 2528 794 2588 1216 
z
" transform="scale(0.015625)"/>
    </defs>
    <use xlink:href="#ArialMT-44"/>
    <use xlink:href="#ArialMT-69" x="72.216797"/>
    <use xlink:href="#ArialMT-73" x="94.433594"/>
    <use xlink:href="#ArialMT-74" x="144.433594"/>
    <use xlink:href="#ArialMT-72" x="172.216797"/>
    <use xlink:href="#ArialMT-69" x="205.517578"/>
    <use xlink:href="#ArialMT-62" x="227.734375"/>
    <use xlink:href="#ArialMT-75" x="283.349609"/>
    <use xlink:href="#ArialMT-74" x="338.964844"/>
    <use xlink:href="#ArialMT-69" x="366.748047"/>
    <use xlink:href="#ArialMT-6f" x="388.964844"/>
    <use xlink:href="#ArialMT-6e" x="444.580078"/>
    <use xlink:href="#ArialMT-20" x="500.195312"/>
    <use xlink:href="#ArialMT-6f" x="527.978516"/>
    <use xlink:href="#ArialMT-66" x="583.59375"/>
    <use xlink:href="#ArialMT-20" x="611.376953"/>
    <use xlink:href="#ArialMT-70" x="639.160156"/>
    <use xlink:href="#ArialMT-6c" x="694.775391"/>
    <use xlink:href="#ArialMT-61" x="716.992188"/>
    <use xlink:href="#ArialMT-79" x="772.607422"/>
    <use xlink:href="#ArialMT-61" x="822.607422"/>
    <use xlink:href="#ArialMT-72" x="878.222656"/>
    <use xlink:href="#ArialMT-65" x="911.523438"/>
    <use xlink:href="#ArialMT-61" x="967.138672"/>
    <use xlink:href="#ArialMT-20" x="1022.753906"/>
    <use xlink:href="#ArialMT-61" x="1050.537109"/>
    <use xlink:href="#ArialMT-63" x="1106.152344"/>
    <use xlink:href="#ArialMT-72" x="1156.152344"/>
    <use xlink:href="#ArialMT-6f" x="1189.453125"/>
    <use xlink:href="#ArialMT-73" x="1245.068359"/>
    <use xlink:href="#ArialMT-73" x="1295.068359"/>
    <use xlink:href="#ArialMT-20" x="1345.068359"/>
    <use xlink:href="#ArialMT-70" x="1372.851562"/>
    <use xlink:href="#ArialMT-6c" x="1428.466797"/>
    <use xlink:href="#ArialMT-61" x="1450.683594"/>
    <use xlink:href="#ArialMT-79" x="1506.298828"/>
    <use xlink:href="#ArialMT-67" x="1556.298828"/>
    <use xlink:href="#ArialMT-72" x="1611.914062"/>
    <use xlink:href="#ArialMT-6f" x="1645.214844"/>
    <use xlink:href="#ArialMT-75" x="1700.830078"/>
    <use xlink:href="#ArialMT-6e" x="1756.445312"/>
    <use xlink:href="#ArialMT-64" x="1812.060547"/>
    <use xlink:href="#ArialMT-73" x="1867.675781"/>
   </g>
  </g>
 </g>
 <defs>
  <clipPath id="pe771c48af5">
   <rect x="50.312344" y="33.181875" width="795.015" height="560.998125"/>
  </clipPath>
 </defs>
</svg>
